<svg width="40" height="40" viewBox="0 0 40 40" fill="none" xmlns="http://www.w3.org/2000/svg">
<path d="M33.75 1.875H25C24.655 1.875 24.375 2.15562 24.375 2.5V5H23.125C22.4356 5 21.875 5.56063 21.875 6.25C21.875 6.93937 22.4356 7.5 23.125 7.5H24.375V10.625H26.875C26.875 9.24625 27.9963 8.125 29.375 8.125C30.7537 8.125 31.875 9.24625 31.875 10.625H33.75C34.095 10.625 34.375 10.3444 34.375 10V2.5C34.375 2.15562 34.095 1.875 33.75 1.875Z" fill="black"/>
<path d="M16.8749 38.125C18.3836 38.125 19.6461 37.0494 19.9367 35.625H13.813C14.1036 37.0494 15.3661 38.125 16.8749 38.125Z" fill="black"/>
<path d="M11.875 13.125C13.2537 13.125 14.375 14.2463 14.375 15.625H16.875V13.75C15.4963 13.75 14.375 12.6287 14.375 11.25C14.375 9.87125 15.4963 8.75 16.875 8.75V5.625H16.4494C10.7581 5.625 6.07875 10.04 5.65625 15.625H9.375C9.375 14.2463 10.4962 13.125 11.875 13.125Z" fill="black"/>
<path d="M12.5 29.375H16.875V24.375C15.4963 24.375 14.375 23.2537 14.375 21.875C14.375 20.4963 15.4963 19.375 16.875 19.375V16.875H13.125V15.625C13.125 14.9356 12.5644 14.375 11.875 14.375C11.1857 14.375 10.625 14.9356 10.625 15.625V16.875H5.63379C5.75316 19.9738 7.18254 22.8525 9.59504 24.8269L12.5 27.2038V29.375Z" fill="black"/>
<path d="M24.375 15.625C24.375 14.9356 23.8144 14.375 23.125 14.375C22.4356 14.375 21.875 14.9356 21.875 15.625V16.875H18.125V20.625H16.875C16.1856 20.625 15.625 21.1856 15.625 21.875C15.625 22.5644 16.1856 23.125 16.875 23.125H18.125V29.375H21.25V27.2038L24.155 24.8269C26.5675 22.8525 27.9962 19.9738 28.1162 16.875H24.375V15.625Z" fill="black"/>
<path d="M20.625 33.125H13.125C12.78 33.125 12.5 33.4056 12.5 33.75C12.5 34.0944 12.78 34.375 13.125 34.375H20.625C20.97 34.375 21.25 34.0944 21.25 33.75C21.25 33.4056 20.97 33.125 20.625 33.125Z" fill="black"/>
<path d="M21.875 30.625H11.875C11.53 30.625 11.25 30.9056 11.25 31.25C11.25 31.5944 11.53 31.875 11.875 31.875H13.125H20.625H21.875C22.22 31.875 22.5 31.5944 22.5 31.25C22.5 30.9056 22.22 30.625 21.875 30.625Z" fill="black"/>
</svg>
