<svg width="36" height="36" viewBox="0 0 36 36" fill="none" xmlns="http://www.w3.org/2000/svg">
<g clip-path="url(#clip0_75_3122)">
<path d="M18 22.5C14.8934 22.5 12.375 19.9816 12.375 16.875C12.375 13.7684 14.8934 11.25 18 11.25C21.1066 11.25 23.625 13.7684 23.625 16.875C23.625 19.9816 21.1066 22.5 18 22.5Z" fill="black"/>
<path d="M16.9426 28.8553L18.0001 29.9128L19.0576 28.8553L18.4614 24.7266C18.3039 24.7491 18.1576 24.7491 18.0001 24.7491C17.8426 24.7491 17.6964 24.7491 17.5389 24.7266L16.9426 28.8553Z" fill="black"/>
<path d="M10.125 27.3946V33.7509C10.125 34.9884 11.1375 36.0009 12.375 36.0009H23.625C24.8625 36.0009 25.875 34.9884 25.875 33.7509V27.3946C25.875 25.3921 25.0425 23.5809 23.715 22.2871C22.8825 23.1759 21.8475 23.8621 20.6775 24.2784L21.3637 29.0934C21.4087 29.4421 21.2962 29.7909 21.0487 30.0496L18.7987 32.2996C18.5738 32.5134 18.2925 32.6259 18 32.6259C17.7075 32.6259 17.4263 32.5134 17.2013 32.2996L14.9513 30.0496C14.7038 29.7909 14.5913 29.4421 14.6363 29.0934L15.3225 24.2784C14.1525 23.8621 13.1175 23.1759 12.285 22.2871C10.9575 23.5809 10.125 25.3921 10.125 27.3946Z" fill="black"/>
<path d="M13.6522 2.99807L15.766 2.40981L17.0695 0.492697C17.4891 -0.122566 18.5109 -0.122566 18.9306 0.492697L20.2341 2.40981L22.3479 2.99807C22.7115 3.0991 23 3.3754 23.1164 3.73472C23.2328 4.09337 23.162 4.48678 22.9268 4.78176L21.4607 6.62743L21.6299 8.72365C21.6612 9.10648 21.4948 9.47841 21.1888 9.71072C20.8823 9.94258 20.4802 10.0013 20.1187 9.86946L18 9.08669L15.8813 9.86946C15.7544 9.91615 15.6225 9.93921 15.4913 9.93921C15.2496 9.93921 15.0101 9.86125 14.8112 9.71072C14.5052 9.47841 14.3388 9.10648 14.3701 8.72365L14.5393 6.62743L13.0732 4.78176C12.8381 4.48678 12.7672 4.09348 12.8836 3.73472C13.0001 3.37551 13.2886 3.09921 13.6522 2.99807Z" fill="black"/>
<path d="M24.7693 7.90532L26.8831 7.3175L28.1866 5.40039C28.3964 5.09282 28.7447 4.9082 29.1171 4.9082C29.4895 4.9082 29.8378 5.09282 30.0471 5.40039L31.3512 7.3175L33.4656 7.90532C33.8287 8.00634 34.1176 8.28264 34.234 8.6414C34.3505 9.00017 34.2796 9.39347 34.045 9.689L32.5778 11.5352L32.747 13.6315C32.7783 14.0143 32.6113 14.3868 32.3053 14.6185C31.9999 14.8504 31.5967 14.9091 31.2358 14.7773L29.1171 13.9939L26.9984 14.7773C26.8715 14.824 26.7396 14.847 26.6083 14.847C26.3667 14.847 26.1272 14.7691 25.9288 14.6185C25.6223 14.3862 25.4559 14.0143 25.4872 13.6315L25.6564 11.5352L24.1897 9.689C23.9551 9.39347 23.8843 9.00017 24.0007 8.6414C24.1171 8.28264 24.4063 8.00634 24.7693 7.90532Z" fill="black"/>
<path d="M1.76596 8.64038C1.8824 8.28173 2.17141 8.00532 2.53444 7.90429L4.64877 7.31648L5.95287 5.39937C6.37148 4.78298 7.39377 4.78411 7.81339 5.39937L9.11693 7.31648L11.2307 7.90429C11.5938 8.00532 11.8827 8.28162 11.9992 8.64038C12.1156 8.99914 12.0447 9.39244 11.8102 9.68798L10.3435 11.5342L10.5127 13.6304C10.544 14.0133 10.3776 14.3852 10.071 14.6175C9.87271 14.768 9.6332 14.846 9.39155 14.846C9.26026 14.846 9.12841 14.8229 9.00151 14.7762L6.88279 13.9929L4.76408 14.7762C4.40375 14.9087 4.00111 14.8498 3.69454 14.6175C3.38855 14.3856 3.2216 14.0133 3.25287 13.6304L3.42207 11.5342L1.95485 9.68798C1.72028 9.39244 1.64952 8.99914 1.76596 8.64038Z" fill="black"/>
</g>
<defs>
<clipPath id="clip0_75_3122">
<rect width="36" height="36" fill="white" transform="matrix(-1 0 0 1 36 0)"/>
</clipPath>
</defs>
</svg>
