<svg width="27" height="27" viewBox="0 0 27 27" fill="none" xmlns="http://www.w3.org/2000/svg">
<path d="M26.0529 23.8758L21.0531 18.876C22.5684 16.8923 23.3994 14.4863 23.3997 11.9474C23.3997 8.88779 22.2081 6.01109 20.0443 3.84764C17.8808 1.68418 15.0045 0.492554 11.9445 0.492554C8.88489 0.492554 6.00819 1.68418 3.84474 3.84764C-0.621424 8.31418 -0.621424 15.5814 3.84474 20.0472C6.00819 22.211 8.88489 23.4026 11.9445 23.4026C14.4834 23.4023 16.8894 22.5713 18.8731 21.056L23.8729 26.0558C24.1736 26.3569 24.5684 26.5074 24.9629 26.5074C25.3573 26.5074 25.7521 26.3569 26.0529 26.0558C26.6551 25.4539 26.6551 24.4776 26.0529 23.8758ZM6.02475 17.8672C2.76076 14.6032 2.76113 9.29202 6.02475 6.02765C7.60594 4.44684 9.70842 3.57589 11.9445 3.57589C14.181 3.57589 16.2831 4.44684 17.8643 6.02765C19.4455 7.60884 20.3164 9.71131 20.3164 11.9474C20.3164 14.1839 19.4455 16.286 17.8643 17.8672C16.2831 19.4484 14.181 20.3193 11.9445 20.3193C9.70842 20.3193 7.60594 19.4484 6.02475 17.8672Z" fill="#1D1D1D"/>
</svg>
