<svg width="27" height="29" viewBox="0 0 27 29" fill="none" xmlns="http://www.w3.org/2000/svg">
<path d="M22.53 0.9375H4.47056C2.25406 0.9375 0.457031 2.73453 0.457031 4.95103V24.048C0.457031 26.2655 2.25406 28.0625 4.47056 28.0625H22.529C24.7455 28.0625 26.5426 26.2655 26.5426 24.049V4.95103C26.5435 2.73453 24.7465 0.9375 22.53 0.9375ZM9.06631 6.05928H17.9342C18.4157 6.05928 18.8061 6.44969 18.8061 6.93116C18.8061 7.41263 18.4157 7.80303 17.9342 7.80303H9.06631C8.58484 7.80303 8.19444 7.41263 8.19444 6.93116C8.19444 6.44969 8.58484 6.05928 9.06631 6.05928ZM14.129 21.972H5.42284C4.94138 21.972 4.55097 21.5816 4.55097 21.1001C4.55097 20.6186 4.94138 20.2282 5.42284 20.2282H14.129C14.6105 20.2282 15.0009 20.6186 15.0009 21.1001C15.0009 21.5816 14.6105 21.972 14.129 21.972ZM14.129 15.0919H5.42284C4.94138 15.0919 4.55097 14.7015 4.55097 14.22C4.55097 13.7386 4.94138 13.3482 5.42284 13.3482H14.129C14.6105 13.3482 15.0009 13.7386 15.0009 14.22C15.0009 14.7015 14.6105 15.0919 14.129 15.0919ZM22.1241 20.8104L19.7206 22.7479C19.5656 22.8729 19.3719 22.9407 19.1743 22.9407C19.1413 22.9407 19.1084 22.9388 19.0745 22.9349C18.8429 22.9088 18.6318 22.7906 18.4884 22.6065L17.5429 21.4014C17.2455 21.0216 17.3123 20.4743 17.6901 20.1769C18.0699 19.8785 18.6172 19.9453 18.9146 20.3241L19.3147 20.8337L21.0304 19.4503C21.4053 19.149 21.9536 19.2081 22.2568 19.583C22.5591 19.9589 22.5 20.5072 22.1241 20.8104ZM22.1241 13.9313L19.7206 15.8679C19.5656 15.9928 19.3719 16.0607 19.1743 16.0607C19.1413 16.0607 19.1084 16.0587 19.0745 16.0548C18.8429 16.0287 18.6318 15.9105 18.4884 15.7264L17.5429 14.5213C17.2455 14.1416 17.3123 13.5942 17.6901 13.2968C18.0699 12.9984 18.6172 13.0653 18.9146 13.4441L19.3147 13.9546L21.0304 12.5712C21.4053 12.2699 21.9555 12.33 22.2568 12.7039C22.5591 13.0798 22.5 13.6291 22.1241 13.9313Z" fill="#1D1D1D"/>
</svg>
