<svg width="29" height="29" viewBox="0 0 29 29" fill="none" xmlns="http://www.w3.org/2000/svg">
<path d="M26.4716 10.7299C25.9428 10.6531 25.4381 10.458 24.9952 10.1591C24.5522 9.86022 24.1824 9.46525 23.9132 9.00362C23.6441 8.54199 23.4826 8.02559 23.4407 7.49287C23.3988 6.96015 23.4776 6.42485 23.6713 5.92682C23.7944 5.60123 23.8125 5.24527 23.7231 4.90885C23.6337 4.57243 23.4413 4.27242 23.1728 4.05088C21.9875 3.05551 20.6383 2.27358 19.1853 1.73994C18.8545 1.61704 18.4933 1.60168 18.1532 1.69606C17.8131 1.79044 17.5115 1.98974 17.2913 2.26557C16.9598 2.68938 16.5362 3.03215 16.0526 3.26789C15.569 3.50363 15.038 3.62615 14.5 3.62615C13.962 3.62615 13.431 3.50363 12.9474 3.26789C12.4638 3.03215 12.0402 2.68938 11.7088 2.26557C11.4886 1.98974 11.1869 1.79044 10.8468 1.69606C10.5068 1.60168 10.1456 1.61704 9.81471 1.73994C8.47315 2.23262 7.21884 2.93626 6.09908 3.82432C5.81682 4.04777 5.61352 4.35571 5.51894 4.70306C5.42435 5.05042 5.44346 5.41892 5.57346 5.75463C5.78258 6.26584 5.86898 6.81894 5.82573 7.36957C5.78248 7.9202 5.61079 8.45303 5.32442 8.92531C5.03805 9.3976 4.64498 9.7962 4.17674 10.0891C3.7085 10.3821 3.17812 10.5612 2.62814 10.6121C2.27109 10.6503 1.93572 10.8021 1.67143 11.0452C1.40713 11.2883 1.22786 11.6098 1.16002 11.9624C0.991274 12.7977 0.90627 13.6478 0.90627 14.4999C0.905029 15.2134 0.96262 15.9257 1.07846 16.6296C1.13611 16.9936 1.31204 17.3284 1.57905 17.5823C1.84606 17.8362 2.18928 17.995 2.55564 18.0343C3.1177 18.0871 3.65894 18.2737 4.13406 18.5785C4.60919 18.8834 5.00439 19.2976 5.28657 19.7865C5.56875 20.2755 5.7297 20.8249 5.75597 21.3888C5.78223 21.9527 5.67303 22.5147 5.43752 23.0278C5.28339 23.3615 5.24516 23.7371 5.3289 24.095C5.41263 24.453 5.61353 24.7727 5.89971 25.0034C7.07794 25.9807 8.41416 26.7499 9.85096 27.2781C10.0347 27.3417 10.2275 27.3754 10.4219 27.3778C10.6885 27.3772 10.9511 27.3127 11.1876 27.1897C11.4241 27.0667 11.6277 26.8888 11.7813 26.6709C12.1043 26.2003 12.5373 25.8156 13.0426 25.5503C13.548 25.285 14.1105 25.147 14.6813 25.1484C15.2343 25.1491 15.7796 25.2789 16.2736 25.5275C16.7676 25.7761 17.1968 26.1366 17.5269 26.5803C17.7465 26.8754 18.0575 27.0897 18.4116 27.1897C18.7656 27.2897 19.1428 27.2698 19.4844 27.1331C20.7982 26.6043 22.0213 25.8735 23.1094 24.9671C23.3827 24.7411 23.5774 24.4343 23.6653 24.0907C23.7532 23.7471 23.7299 23.3845 23.5988 23.0549C23.3856 22.5503 23.2927 22.0031 23.3273 21.4564C23.3619 20.9097 23.5231 20.3785 23.7982 19.9048C24.0733 19.4311 24.4547 19.0278 24.9124 18.7268C25.37 18.4258 25.8914 18.2352 26.4353 18.1703C26.788 18.1215 27.116 17.9617 27.3719 17.714C27.6277 17.4664 27.798 17.1437 27.8581 16.7928C28.0037 16.0369 28.0825 15.2696 28.0938 14.4999C28.0939 13.6881 28.0181 12.878 27.8672 12.0803C27.806 11.7371 27.6382 11.4219 27.3877 11.1795C27.1372 10.9371 26.8166 10.7798 26.4716 10.7299ZM19.0313 14.4999C19.0313 15.3961 18.7655 16.2722 18.2676 17.0174C17.7697 17.7625 17.062 18.3433 16.2341 18.6863C15.4061 19.0292 14.495 19.119 13.616 18.9441C12.737 18.7693 11.9296 18.3377 11.2959 17.704C10.6622 17.0703 10.2307 16.2629 10.0558 15.3839C9.881 14.505 9.97073 13.5939 10.3137 12.7659C10.6566 11.9379 11.2374 11.2302 11.9826 10.7323C12.7278 10.2344 13.6038 9.96869 14.5 9.96869C15.7018 9.96869 16.8543 10.4461 17.7041 11.2959C18.5539 12.1456 19.0313 13.2982 19.0313 14.4999Z" fill="#1D1D1D"/>
</svg>
