<svg width="28" height="28" viewBox="0 0 28 28" fill="none" xmlns="http://www.w3.org/2000/svg">
<g clip-path="url(#clip0_116_322)">
<path d="M0.820312 1.64062C1.27334 1.64062 1.64062 2.00791 1.64062 2.46094V4.39704C1.65889 4.38446 1.67716 4.37188 1.69553 4.3592C2.39127 3.87959 3.17975 3.33605 4.11523 3.33605C4.97235 3.33605 5.65759 3.86192 6.26216 4.32595C6.67904 4.64592 7.11003 4.97667 7.41016 4.97667C7.71028 4.97667 8.14133 4.64587 8.55821 4.32595C9.16278 3.86198 9.84796 3.33605 10.7051 3.33605C11.5622 3.33605 12.2474 3.86192 12.852 4.32595C13.2688 4.64587 13.6999 4.97667 14 4.97667C14.3001 4.97667 14.7312 4.64587 15.1481 4.32595C15.7526 3.86198 16.4378 3.33605 17.2949 3.33605C18.152 3.33605 18.8373 3.86192 19.4418 4.32595C19.8587 4.64592 20.2897 4.97667 20.5898 4.97667C20.89 4.97667 21.321 4.64587 21.7379 4.32595C22.3425 3.86198 23.0276 3.33605 23.8848 3.33605C24.8202 3.33605 25.6087 3.87959 26.3045 4.3592C26.3228 4.37188 26.3411 4.38441 26.3594 4.39704V2.46094C26.3594 2.00791 26.7267 1.64062 27.1797 1.64062C27.6327 1.64062 28 2.00791 28 2.46094V25.5392C28 25.9922 27.6327 26.3595 27.1797 26.3595H0.820312C0.367281 26.3595 0 25.9922 0 25.5392V2.46094C0 2.00791 0.367281 1.64062 0.820312 1.64062ZM12.5566 20.1465C12.2363 19.8262 11.7169 19.8262 11.3965 20.1465C11.0761 20.4669 11.0761 20.9863 11.3965 21.3066L13.3926 23.3027C13.5528 23.4629 13.7627 23.543 13.9726 23.543C13.9771 23.543 13.9817 23.5424 13.9863 23.5424C13.9908 23.5424 13.9954 23.543 13.9999 23.543C14.2099 23.543 14.4198 23.4629 14.58 23.3027L16.5761 21.3066C16.8964 20.9863 16.8964 20.4669 16.5761 20.1465C16.2557 19.8262 15.7363 19.8262 15.416 20.1465L14.8203 20.7423V11.058L15.4161 11.6538C15.5763 11.814 15.7862 11.8941 15.9961 11.8941C16.206 11.8941 16.416 11.814 16.5761 11.6538C16.8965 11.3335 16.8965 10.8141 16.5761 10.4937L14.58 8.49762C14.4164 8.33399 14.2008 8.25448 13.9863 8.25803C13.7718 8.25448 13.5563 8.33399 13.3926 8.49762L11.3965 10.4937C11.0762 10.814 11.0762 11.3334 11.3965 11.6538C11.5567 11.814 11.7667 11.8941 11.9766 11.8941C12.1865 11.8941 12.3965 11.814 12.5566 11.6538L13.1797 11.0307V20.7697L12.5566 20.1465Z" fill="#1D1D1D"/>
</g>
<defs>
<clipPath id="clip0_116_322">
<rect width="28" height="28" fill="white" transform="matrix(-1 0 0 1 28 0)"/>
</clipPath>
</defs>
</svg>
