<svg width="28" height="28" viewBox="0 0 28 28" fill="none" xmlns="http://www.w3.org/2000/svg">
<path d="M13.4167 14.2847C16.9605 14.2847 19.8333 11.4119 19.8333 7.86808C19.8333 4.32426 16.9605 1.45142 13.4167 1.45142C9.87284 1.45142 7 4.32426 7 7.86808C7 11.4119 9.87284 14.2847 13.4167 14.2847Z" fill="#1D1D1D"/>
<path fill-rule="evenodd" clip-rule="evenodd" d="M15.0788 25.3822C13.8667 24.0802 13.1247 22.3349 13.1247 20.4169C13.1247 18.4534 13.9028 16.6695 15.1675 15.3582C14.5958 15.3139 14.0113 15.2905 13.4163 15.2905C9.54068 15.2905 6.10951 16.26 3.97917 17.7125C2.35401 18.8209 1.45801 20.229 1.45801 21.7072V23.3989C1.45801 23.925 1.66684 24.4302 2.03901 24.8012C2.41117 25.1734 2.91517 25.3822 3.44134 25.3822H15.0788Z" fill="#1D1D1D"/>
<path fill-rule="evenodd" clip-rule="evenodd" d="M20.416 14.2917C17.035 14.2917 14.291 17.0357 14.291 20.4167C14.291 23.7977 17.035 26.5417 20.416 26.5417C23.797 26.5417 26.541 23.7977 26.541 20.4167C26.541 17.0357 23.797 14.2917 20.416 14.2917ZM19.541 20.4167V23.3334C19.541 23.8164 19.933 24.2084 20.416 24.2084C20.899 24.2084 21.291 23.8164 21.291 23.3334V20.4167C21.291 19.9337 20.899 19.5417 20.416 19.5417C19.933 19.5417 19.541 19.9337 19.541 20.4167ZM20.416 16.6251C21.06 16.6251 21.5827 17.1477 21.5827 17.7917C21.5827 18.4357 21.06 18.9584 20.416 18.9584C19.772 18.9584 19.2493 18.4357 19.2493 17.7917C19.2493 17.1477 19.772 16.6251 20.416 16.6251Z" fill="#1D1D1D"/>
</svg>
