<svg width="25" height="25" viewBox="0 0 25 25" fill="none" xmlns="http://www.w3.org/2000/svg">
<path d="M22.9934 6.43498C22.9635 5.77728 22.9635 5.14948 22.9635 4.52167C22.9635 4.01345 22.5749 3.62481 22.0666 3.62481C18.3297 3.62481 15.4897 2.54858 13.1279 0.246637C12.7692 -0.0822123 12.2311 -0.0822123 11.8723 0.246637C9.51058 2.54858 6.67052 3.62481 2.9336 3.62481C2.42538 3.62481 2.03674 4.01345 2.03674 4.52167C2.03674 5.14948 2.03674 5.77728 2.00685 6.43498C1.88726 12.713 1.70789 21.3229 12.2012 24.9402L12.5001 25L12.7991 24.9402C23.2624 21.3229 23.113 12.7429 22.9934 6.43498ZM11.7826 15.1345C11.6033 15.284 11.394 15.3737 11.1548 15.3737H11.1249C10.8858 15.3737 10.6466 15.2541 10.4971 15.0747L7.71686 11.9955L9.06215 10.7997L11.2445 13.2212L16.0876 8.61734L17.3133 9.93274L11.7826 15.1345Z" fill="#1D1D1D"/>
</svg>
