<svg width="28" height="28" viewBox="0 0 28 28" fill="none" xmlns="http://www.w3.org/2000/svg">
<path d="M7.7211 21.1882C7.52809 20.9952 7.2663 20.8868 6.99334 20.8868C6.72038 20.8868 6.4586 20.9952 6.26558 21.1882L4.63975 22.814L3.89652 22.0708C3.70131 21.8756 3.46957 21.7207 3.21452 21.6151C2.95948 21.5095 2.68612 21.4551 2.41005 21.4551C2.13399 21.4551 1.86063 21.5095 1.60558 21.6151C1.35054 21.7207 1.11879 21.8756 0.923589 22.0708C0.630775 22.3636 0.398503 22.7112 0.240033 23.0938C0.0815634 23.4764 0 23.8864 0 24.3005C0 24.7146 0.0815634 25.1246 0.240033 25.5072C0.398503 25.8898 0.630775 26.2374 0.923589 26.5302C1.2164 26.823 1.56401 27.0553 1.94659 27.2137C2.32916 27.3722 2.7392 27.4538 3.15329 27.4538C3.56739 27.4538 3.97743 27.3722 4.36 27.2137C4.74258 27.0553 5.09019 26.823 5.383 26.5302C5.65008 26.2633 5.84032 25.9293 5.93371 25.5635C6.0271 25.1976 6.0202 24.8134 5.91372 24.4511L7.72113 22.6437C7.91413 22.4507 8.02255 22.1889 8.02255 21.9159C8.02255 21.643 7.9141 21.3812 7.7211 21.1882Z" fill="#1D1D1D"/>
<path d="M0.923589 5.38314C1.1905 5.65022 1.52444 5.84046 1.8903 5.93385C2.25616 6.02724 2.64042 6.02034 3.00269 5.91386L4.81009 7.72127C4.90566 7.81684 5.01912 7.89265 5.14398 7.94437C5.26885 7.9961 5.40268 8.02272 5.53784 8.02272C5.67299 8.02272 5.80682 7.9961 5.93169 7.94437C6.05656 7.89265 6.17001 7.81684 6.26558 7.72127C6.36116 7.6257 6.43697 7.51224 6.48869 7.38737C6.54042 7.26251 6.56704 7.12867 6.56704 6.99352C6.56704 6.85836 6.54042 6.72453 6.48869 6.59966C6.43697 6.47479 6.36116 6.36133 6.26558 6.26577L4.63975 4.63991L5.383 3.89667C5.57821 3.70146 5.73305 3.46972 5.8387 3.21467C5.94434 2.95962 5.99872 2.68626 5.99872 2.4102C5.99872 2.13414 5.94434 1.86078 5.8387 1.60573C5.73305 1.35068 5.57821 1.11894 5.383 0.923734C5.09019 0.630924 4.74258 0.398654 4.36 0.240186C3.97743 0.0817186 3.56739 0.000156403 3.1533 0.000156403C2.7392 0.000156403 2.32916 0.0817186 1.94659 0.240186C1.56401 0.398654 1.2164 0.630924 0.923589 0.923734C0.630776 1.21654 0.398503 1.56415 0.240033 1.94673C0.0815634 2.3293 0 2.73934 0 3.15344C0 3.56753 0.0815634 3.97757 0.240033 4.36015C0.398503 4.74272 0.630776 5.09033 0.923589 5.38314Z" fill="#1D1D1D"/>
<path d="M26.8304 22.0708C26.6352 21.8756 26.4034 21.7207 26.1484 21.6151C25.8933 21.5095 25.62 21.4551 25.3439 21.4551C25.0679 21.4551 24.7945 21.5095 24.5395 21.6151C24.2844 21.7207 24.0527 21.8756 23.8575 22.0708L23.1142 22.814L21.4884 21.1882C21.2954 20.9952 21.0336 20.8868 20.7606 20.8868C20.4877 20.8868 20.2259 20.9952 20.0329 21.1882C19.8399 21.3812 19.7314 21.643 19.7314 21.9159C19.7314 22.1889 19.8399 22.4507 20.0329 22.6437L21.8403 24.4511C21.7338 24.8134 21.7269 25.1976 21.8203 25.5635C21.9137 25.9294 22.1039 26.2633 22.371 26.5302C22.6638 26.823 23.0114 27.0553 23.394 27.2138C23.7766 27.3722 24.1866 27.4538 24.6007 27.4538C25.0148 27.4538 25.4248 27.3722 25.8074 27.2138C26.19 27.0553 26.5376 26.823 26.8304 26.5302C27.1232 26.2374 27.3555 25.8898 27.514 25.5072C27.6724 25.1247 27.754 24.7146 27.754 24.3005C27.754 23.8864 27.6724 23.4764 27.514 23.0938C27.3555 22.7112 27.1232 22.3636 26.8304 22.0708Z" fill="#1D1D1D"/>
<path d="M21.4882 7.72111C21.5838 7.81668 21.6972 7.89249 21.8221 7.94422C21.947 7.99594 22.0808 8.02256 22.216 8.02256C22.3511 8.02256 22.485 7.99594 22.6098 7.94422C22.7347 7.89249 22.8481 7.81668 22.9437 7.72111L24.7511 5.91371C25.1134 6.02018 25.4976 6.02709 25.8635 5.9337C26.2294 5.8403 26.5633 5.65007 26.8302 5.38299C27.123 5.09018 27.3553 4.74257 27.5138 4.35999C27.6722 3.97742 27.7538 3.56738 27.7538 3.15328C27.7538 2.73919 27.6722 2.32914 27.5138 1.94657C27.3553 1.564 27.123 1.21638 26.8302 0.923577C26.5374 0.630767 26.1898 0.398498 25.8072 0.24003C25.4246 0.0815623 25.0146 0 24.6005 0C24.1864 0 23.7764 0.0815623 23.3938 0.24003C23.0112 0.398498 22.6636 0.630767 22.3708 0.923577C22.1756 1.11878 22.0208 1.35053 21.9151 1.60557C21.8095 1.86062 21.7551 2.13398 21.7551 2.41005C21.7551 2.68611 21.8095 2.95947 21.9151 3.21452C22.0208 3.46957 22.1756 3.70131 22.3708 3.89651L23.1141 4.63975L21.4882 6.26563C21.3927 6.3612 21.3168 6.47466 21.2651 6.59952C21.2134 6.72439 21.1868 6.85823 21.1868 6.99338C21.1868 7.12854 21.2134 7.26237 21.2651 7.38724C21.3168 7.51211 21.3927 7.62554 21.4882 7.72111Z" fill="#1D1D1D"/>
<path d="M13.877 6.27344C12.403 6.27344 10.9621 6.71053 9.73653 7.52945C8.51094 8.34836 7.5557 9.51232 6.99162 10.8741C6.42755 12.2359 6.27996 13.7344 6.56752 15.1801C6.85509 16.6258 7.56489 17.9537 8.60717 18.996C9.64945 20.0383 10.9774 20.7481 12.4231 21.0357C13.8688 21.3232 15.3673 21.1756 16.7291 20.6116C18.0909 20.0475 19.2548 19.0923 20.0737 17.8667C20.8927 16.6411 21.3298 15.2002 21.3298 13.7262C21.3298 11.7496 20.5446 9.85394 19.1469 8.45629C17.7492 7.05863 15.8536 6.27344 13.877 6.27344ZM9.44817 12.2906C9.44817 11.1773 10.1096 10.3052 10.9539 10.3052C11.7982 10.3052 12.4596 11.1773 12.4596 12.2906C12.4596 13.4039 11.7982 14.2759 10.9539 14.2759C10.1095 14.2759 9.44817 13.4039 9.44817 12.2906ZM17.1696 16.5034C17.0439 16.6813 15.8984 18.2172 13.8765 18.2172C13.8433 18.2172 13.81 18.2168 13.7763 18.216C11.8556 18.1681 10.7804 16.7809 10.5843 16.5033C10.5283 16.4239 10.506 16.3254 10.5225 16.2296C10.539 16.1338 10.5929 16.0485 10.6723 15.9924C10.7517 15.9364 10.8502 15.9141 10.946 15.9306C11.0418 15.9471 11.1271 16.001 11.1832 16.0804C11.2816 16.2198 12.1909 17.4431 13.7946 17.4832C15.5282 17.5245 16.5293 16.1393 16.5711 16.0802C16.6272 16.0009 16.7126 15.947 16.8084 15.9306C16.9042 15.9142 17.0026 15.9365 17.082 15.9926C17.1613 16.0487 17.2152 16.134 17.2316 16.2299C17.2481 16.3257 17.2257 16.4241 17.1696 16.5034ZM16.8002 14.2759C15.9558 14.2759 15.2944 13.4039 15.2944 12.2906C15.2944 11.1773 15.9558 10.3052 16.8002 10.3052C17.6445 10.3052 18.3059 11.1773 18.3059 12.2906C18.3059 13.4039 17.6445 14.2759 16.8002 14.2759Z" fill="#1D1D1D"/>
</svg>
