<svg width="25" height="28" viewBox="0 0 25 28" fill="none" xmlns="http://www.w3.org/2000/svg">
<path d="M15.125 5.5C14.7603 5.5 14.4106 5.35513 14.1527 5.09727C13.8949 4.83941 13.75 4.48967 13.75 4.125C13.75 3.76033 13.6051 3.41059 13.3473 3.15273C13.0894 2.89487 12.7397 2.75 12.375 2.75C12.0103 2.75 11.6606 2.89487 11.4027 3.15273C11.1449 3.41059 11 3.76033 11 4.125C11 4.48967 10.8551 4.83941 10.5973 5.09727C10.3394 5.35513 9.98967 5.5 9.625 5.5C9.26033 5.5 8.91059 5.35513 8.65273 5.09727C8.39487 4.83941 8.25 4.48967 8.25 4.125C8.25 3.03098 8.6846 1.98177 9.45818 1.20818C10.2318 0.434597 11.281 0 12.375 0C13.469 0 14.5182 0.434597 15.2918 1.20818C16.0654 1.98177 16.5 3.03098 16.5 4.125C16.5 4.48967 16.3551 4.83941 16.0973 5.09727C15.8394 5.35513 15.4897 5.5 15.125 5.5ZM24.75 8.25C24.75 8.61467 24.6051 8.96441 24.3473 9.22227C24.0894 9.48013 23.7397 9.625 23.375 9.625H22V19.25C21.9976 21.4373 21.1276 23.5343 19.581 25.081C18.0343 26.6277 15.9373 27.4976 13.75 27.5H11C8.8127 27.4976 6.71567 26.6277 5.16901 25.081C3.62235 23.5343 2.75239 21.4373 2.75 19.25V9.625H1.375C1.01033 9.625 0.660591 9.48013 0.402728 9.22227C0.144866 8.96441 0 8.61467 0 8.25C0 7.88533 0.144866 7.53559 0.402728 7.27773C0.660591 7.01987 1.01033 6.875 1.375 6.875H23.375C23.7397 6.875 24.0894 7.01987 24.3473 7.27773C24.6051 7.53559 24.75 7.88533 24.75 8.25ZM11 15.125C11 14.7603 10.8551 14.4106 10.5973 14.1527C10.3394 13.8949 9.98967 13.75 9.625 13.75C9.26033 13.75 8.91059 13.8949 8.65273 14.1527C8.39487 14.4106 8.25 14.7603 8.25 15.125V19.25C8.25 19.6147 8.39487 19.9644 8.65273 20.2223C8.91059 20.4801 9.26033 20.625 9.625 20.625C9.98967 20.625 10.3394 20.4801 10.5973 20.2223C10.8551 19.9644 11 19.6147 11 19.25V15.125ZM16.5 15.125C16.5 14.7603 16.3551 14.4106 16.0973 14.1527C15.8394 13.8949 15.4897 13.75 15.125 13.75C14.7603 13.75 14.4106 13.8949 14.1527 14.1527C13.8949 14.4106 13.75 14.7603 13.75 15.125V19.25C13.75 19.6147 13.8949 19.9644 14.1527 20.2223C14.4106 20.4801 14.7603 20.625 15.125 20.625C15.4897 20.625 15.8394 20.4801 16.0973 20.2223C16.3551 19.9644 16.5 19.6147 16.5 19.25V15.125Z" fill="#1D1D1D"/>
</svg>
