<svg width="27" height="27" viewBox="0 0 27 27" fill="none" xmlns="http://www.w3.org/2000/svg">
<g clip-path="url(#clip0_99_1839)">
<path d="M26.6704 25.0796L23.8129 22.2221C24.4024 21.3323 24.75 20.2691 24.75 19.125C24.75 16.0234 22.2266 13.5 19.125 13.5C16.0234 13.5 13.5 16.0234 13.5 19.125C13.5 22.2266 16.0234 24.75 19.125 24.75C20.2691 24.75 21.3323 24.4024 22.2221 23.8129L25.0796 26.6704C25.5195 27.1103 26.2305 27.1103 26.6704 26.6704C27.1103 26.2305 27.1103 25.5195 26.6704 25.0796ZM19.125 22.5C17.2643 22.5 15.75 20.9858 15.75 19.125C15.75 17.2643 17.2643 15.75 19.125 15.75C20.9858 15.75 22.5 17.2643 22.5 19.125C22.5 20.9858 20.9858 22.5 19.125 22.5Z" fill="#1D1D1D"/>
<path d="M21.375 0H3.375C1.51088 0 0 1.51088 0 3.375C0 5.23912 1.51088 6.75 3.375 6.75H21.375C23.2391 6.75 24.75 5.23912 24.75 3.375C24.75 1.51088 23.2391 0 21.375 0ZM3.375 4.5C2.754 4.5 2.25 3.996 2.25 3.375C2.25 2.754 2.754 2.25 3.375 2.25C3.996 2.25 4.5 2.754 4.5 3.375C4.5 3.996 3.996 4.5 3.375 4.5ZM7.875 4.5C7.254 4.5 6.75 3.996 6.75 3.375C6.75 2.754 7.254 2.25 7.875 2.25C8.496 2.25 9 2.754 9 3.375C9 3.996 8.496 4.5 7.875 4.5Z" fill="#1D1D1D"/>
<path d="M21.375 9H3.375C1.5075 9 0 10.5075 0 12.375C0 14.2425 1.5075 15.75 3.375 15.75H12.015C13.275 13.095 15.9863 11.25 19.125 11.25C21.24 11.25 23.1525 12.0825 24.57 13.4437C24.6938 13.1062 24.75 12.7462 24.75 12.375C24.75 10.5075 23.2425 9 21.375 9ZM3.375 13.5C2.75625 13.5 2.25 12.9938 2.25 12.375C2.25 11.7562 2.75625 11.25 3.375 11.25C3.99375 11.25 4.5 11.7562 4.5 12.375C4.5 12.9938 3.99375 13.5 3.375 13.5ZM7.875 13.5C7.25625 13.5 6.75 12.9938 6.75 12.375C6.75 11.7562 7.25625 11.25 7.875 11.25C8.49375 11.25 9 11.7562 9 12.375C9 12.9938 8.49375 13.5 7.875 13.5Z" fill="#1D1D1D"/>
<path d="M11.25 19.125C11.25 18.7425 11.2725 18.3713 11.34 18H3.375C1.5075 18 0 19.5075 0 21.375C0 23.2425 1.5075 24.75 3.375 24.75H13.6238C12.1613 23.3212 11.25 21.33 11.25 19.125ZM3.375 22.5C2.75625 22.5 2.25 21.9938 2.25 21.375C2.25 20.7562 2.75625 20.25 3.375 20.25C3.99375 20.25 4.5 20.7562 4.5 21.375C4.5 21.9938 3.99375 22.5 3.375 22.5ZM7.875 22.5C7.25625 22.5 6.75 21.9938 6.75 21.375C6.75 20.7562 7.25625 20.25 7.875 20.25C8.49375 20.25 9 20.7562 9 21.375C9 21.9938 8.49375 22.5 7.875 22.5Z" fill="#1D1D1D"/>
</g>
<defs>
<clipPath id="clip0_99_1839">
<rect width="27" height="27" fill="white"/>
</clipPath>
</defs>
</svg>
