<svg width="38" height="38" viewBox="0 0 38 38" fill="none" xmlns="http://www.w3.org/2000/svg">
<path fill-rule="evenodd" clip-rule="evenodd" d="M25.2595 6.93522V10.4819H17.554C15.6335 10.4819 13.7917 11.2448 12.4337 12.6028C11.0758 13.9607 10.3129 15.8025 10.3129 17.723V23.3174L8.13843 24.8797C7.95937 25.0086 7.74782 25.0848 7.52771 25.0997C7.30759 25.1146 7.08769 25.0677 6.89287 24.9641C6.69688 24.8648 6.53151 24.7142 6.41439 24.5283C6.29728 24.3424 6.23281 24.1282 6.22787 23.9086V22.1036C5.68409 22.1022 5.14594 21.9934 4.64435 21.7833C4.14276 21.5733 3.68761 21.2663 3.30507 20.8798C2.92252 20.4933 2.62012 20.0351 2.41524 19.5314C2.21035 19.0277 2.10703 18.4884 2.11121 17.9447V6.93522C2.11121 5.65584 2.61944 4.42887 3.52409 3.52421C4.42874 2.61956 5.65572 2.11133 6.93509 2.11133H20.4356C21.0691 2.11133 21.6964 2.2361 22.2817 2.47852C22.8669 2.72095 23.3987 3.07627 23.8467 3.52421C24.2946 3.97215 24.6499 4.50393 24.8923 5.0892C25.1348 5.67446 25.2595 6.30174 25.2595 6.93522Z" fill="#376CE5"/>
<path fill-rule="evenodd" clip-rule="evenodd" d="M31.065 12.8994H17.5539C16.2745 12.8994 15.0475 13.4076 14.1429 14.3123C13.2382 15.217 12.73 16.4439 12.73 17.7233V28.0572C12.73 29.3366 13.2382 30.5635 14.1429 31.4682C15.0475 32.3729 16.2745 32.8811 17.5539 32.8811H25.9983L29.8828 35.6572C30.0629 35.7875 30.2757 35.8654 30.4974 35.8822C30.7191 35.899 30.9412 35.854 31.1389 35.7522C31.3308 35.6489 31.4922 35.497 31.607 35.3118C31.7219 35.1266 31.7861 34.9145 31.7933 34.6966V32.9022C32.8834 32.8911 33.925 32.4502 34.6919 31.6754C35.4588 30.9007 35.8889 29.8545 35.8889 28.7644V17.7233C35.8861 16.4448 35.377 15.2194 34.4729 14.3154C33.5689 13.4113 32.3435 12.9022 31.065 12.8994ZM23.8239 27.7511V24.1305H20.2033L25.0272 18.1033V21.7239H28.6478L23.8239 27.7511Z" fill="#376CE5"/>
</svg>
