<svg width="34" height="34" viewBox="0 0 34 34" fill="none" xmlns="http://www.w3.org/2000/svg">
<g clip-path="url(#clip0_132_255)">
<path d="M19.0229 17.5631H19.8858V16.4375L19.0229 17.5631Z" fill="#376CE5"/>
<path d="M29.0209 4.97914C25.8099 1.76833 21.5409 0 17 0C12.4591 0 8.19008 1.76833 4.97914 4.97914C1.76833 8.19008 0 12.4591 0 17C0 21.5409 1.76833 25.8099 4.97914 29.0209C8.19008 32.2317 12.4591 34 17 34C21.5409 34 25.8099 32.2317 29.0209 29.0209C32.2317 25.8099 34 21.5409 34 17C34 12.4591 32.2317 8.19008 29.0209 4.97914ZM22.2869 17.5628V19.1573H21.4615V20.3203H19.6795V19.1573H17.2689V17.5628L20.2422 13.7735H21.4616V17.5628H22.2869ZM17 28.6211C10.5921 28.6211 5.37891 23.4079 5.37891 17C5.37891 10.5921 10.5921 5.37891 17 5.37891V3.55765L20.5478 6.375L17 9.19235V7.37109C11.6906 7.37109 7.37109 11.6906 7.37109 17C7.37109 22.3094 11.6906 26.6289 17 26.6289C22.3094 26.6289 26.6289 22.3094 26.6289 17H28.6211C28.6211 23.4079 23.4079 28.6211 17 28.6211ZM14.5021 15.3305C14.402 15.2554 14.2644 15.2179 14.0893 15.2179C13.883 15.2179 13.6875 15.2711 13.5031 15.3774C13.3186 15.4837 13.1263 15.6557 12.9263 15.8933L11.8007 14.5707C11.9195 14.4394 12.0728 14.3191 12.2603 14.2096C12.4479 14.1003 12.6557 14.0065 12.884 13.9282C13.1122 13.8502 13.3545 13.7891 13.611 13.7454C13.8673 13.7017 14.1299 13.6797 14.3988 13.6797C15.1178 13.6797 15.6634 13.8282 16.0355 14.1252C16.4075 14.4222 16.5936 14.8366 16.5936 15.368C16.5936 15.5619 16.5686 15.7338 16.5186 15.8839C16.4684 16.034 16.4013 16.17 16.3169 16.2919C16.2325 16.4138 16.1308 16.5249 16.0121 16.6249C15.8933 16.7249 15.7683 16.8188 15.637 16.9062C15.4806 17.0126 15.3165 17.1142 15.1445 17.2111C14.9725 17.3081 14.8022 17.416 14.6333 17.5347H16.6968V19.1292H11.7539C11.7539 18.8166 11.7787 18.5415 11.8289 18.3038C11.8789 18.0663 11.9602 17.8521 12.0728 17.6613C12.1853 17.4706 12.3307 17.3002 12.5089 17.1501C12.6872 17 12.9076 16.8532 13.1702 16.7092C13.5079 16.5279 13.7752 16.3826 13.9721 16.2731C14.1692 16.1637 14.3176 16.0746 14.4177 16.0057C14.5176 15.937 14.5818 15.8791 14.61 15.8322C14.6381 15.7853 14.6521 15.7337 14.6521 15.6774C14.6521 15.5213 14.602 15.4055 14.5021 15.3305Z" fill="#376CE5"/>
</g>
<defs>
<clipPath id="clip0_132_255">
<rect width="34" height="34" fill="white"/>
</clipPath>
</defs>
</svg>
