<svg width="34" height="34" viewBox="0 0 34 34" fill="none" xmlns="http://www.w3.org/2000/svg">
<g clip-path="url(#clip0_132_245)">
<path d="M27.5304 12.5309V13.1071C27.8577 13.0815 28.6701 13.0977 29.5309 13.3418V12.5309C29.5309 5.62133 23.9096 0 16.9999 0C10.0903 0 4.46899 5.62133 4.46899 12.5309V13.3418C5.18873 13.1377 5.99759 13.0701 6.46946 13.1071V12.5309C6.46946 6.72493 11.1933 2.00047 16.9999 2.00047C22.8066 2.00047 27.5304 6.72493 27.5304 12.5309Z" fill="#376CE5"/>
<path d="M27.5304 26.0095C27.5304 28.7951 25.357 30.688 22.9566 30.688H20.6256C20.2526 29.9122 19.4594 29.3766 18.541 29.3766H15.4587C14.182 29.3766 13.147 30.4116 13.147 31.6884C13.147 32.9651 14.182 34.0001 15.4587 34.0001H18.541C19.4595 34.0001 20.2528 33.4644 20.6258 32.6884H22.9566C26.3197 32.6884 29.5308 30.1174 29.5308 25.7715C28.7386 25.9988 27.94 26.0434 27.5304 26.0095Z" fill="#376CE5"/>
<path d="M6.23686 15.0996C3.67232 15.0996 1.64679 17.2453 1.78446 19.8067C1.90846 22.1225 3.82492 23.9723 6.14679 24.0177C6.82532 24.0347 7.23506 23.5401 7.23506 23.0147V16.1032C7.23512 15.5687 6.81559 15.0996 6.23686 15.0996Z" fill="#376CE5"/>
<path d="M27.7464 15.0996C27.1974 15.1045 26.7649 15.5564 26.7649 16.1031V23.0148C26.7649 23.5355 27.1702 24.0352 27.8525 24.0177C30.1575 23.9737 32.0911 22.1379 32.2155 19.8067C32.3512 17.2837 30.3745 15.0996 27.7464 15.0996Z" fill="#376CE5"/>
<path d="M21.6818 19.7638C22.7432 18.7024 22.7432 16.9815 21.6818 15.9201C20.6204 14.8587 18.8994 14.8587 17.838 15.9201L16.9999 16.7582L16.1618 15.9201C15.1004 14.8587 13.3794 14.8587 12.318 15.9201C11.2566 16.9815 11.2566 18.7024 12.318 19.7638L16.5284 23.9741C16.7888 24.2345 17.211 24.2345 17.4714 23.9741L21.6818 19.7638Z" fill="#376CE5"/>
</g>
<defs>
<clipPath id="clip0_132_245">
<rect width="34" height="34" fill="white"/>
</clipPath>
</defs>
</svg>
