<svg width="26" height="26" viewBox="0 0 26 26" fill="none" xmlns="http://www.w3.org/2000/svg">
<path d="M22.7502 6.4987C22.7502 9.5862 18.0918 11.9154 11.9168 11.9154C5.74183 11.9154 1.0835 9.5862 1.0835 6.4987C1.0835 3.4112 5.74183 1.08203 11.9168 1.08203C18.0918 1.08203 22.7502 3.4112 22.7502 6.4987ZM14.0835 22.7487C9.47933 22.7487 5.54683 21.557 3.25016 19.5529C3.31516 22.6187 7.941 24.9154 14.0835 24.9154C20.226 24.9154 24.8193 22.6295 24.9168 19.5962C22.6527 21.557 18.8177 22.7487 14.0835 22.7487ZM11.9168 18.4154C9.12951 18.4738 6.36003 17.9575 3.781 16.8987C5.16766 19.087 9.13266 20.582 14.0835 20.582C20.2585 20.582 24.9168 18.2529 24.9168 15.1654C24.908 14.4955 24.6923 13.8446 24.2993 13.302C22.6852 16.4004 18.016 18.4154 11.9168 18.4154ZM13.0002 14.082H11.9168H10.8335C6.58683 13.9195 3.131 12.7604 1.0835 10.9512C1.181 13.9629 5.80683 16.2487 11.9168 16.2487C18.0268 16.2487 22.6527 13.9629 22.7502 10.9295C20.6593 12.7387 17.2035 13.8979 13.0002 14.082Z" fill="black"/>
</svg>
