<svg width="30" height="30" viewBox="0 0 30 30" fill="none" xmlns="http://www.w3.org/2000/svg">
<g clip-path="url(#clip0_75_3136)">
<path d="M29.7899 7.8281L23.3876 0.311572C23.2204 0.115283 22.9756 0.00219727 22.7177 0.00219727C22.4598 0.00219727 22.215 0.115283 22.0479 0.311572L15.6456 7.8281C15.4231 8.08931 15.3728 8.4561 15.5166 8.76759C15.6605 9.07913 15.9723 9.27858 16.3155 9.27858H18.0704V12.9104H21.4247C22.8463 12.9104 24.0029 14.0669 24.0029 15.4885V29.0883C24.0029 29.4078 23.944 29.7137 23.8373 29.9963C25.139 29.9945 26.2436 29.9929 26.2436 29.9929C26.7288 29.9918 27.1215 29.5982 27.1215 29.113V9.27864H29.1199C29.463 9.27864 29.7749 9.07919 29.9188 8.76765C30.0627 8.4561 30.0123 8.08937 29.7899 7.8281Z" fill="black"/>
<path d="M9.34302 11.5703H13.1054V12.9096H14.8632V10.6914C14.8632 10.206 14.4697 9.8125 13.9843 9.8125H8.46411C7.97872 9.8125 7.58521 10.206 7.58521 10.6914V12.9096H9.34302V11.5703Z" fill="black"/>
<path d="M4.60307 20.3418V19.0816C4.60307 18.5962 4.99658 18.2027 5.48197 18.2027C5.96736 18.2027 6.36088 18.5962 6.36088 19.0816V20.3418H15.9607V19.0816C15.9607 18.5962 16.3542 18.2027 16.8396 18.2027C17.325 18.2027 17.7185 18.5962 17.7185 19.0816V20.3418H22.3038V15.4883C22.3038 15.0029 21.9103 14.6094 21.4249 14.6094H0.878906C0.393516 14.6094 0 15.0029 0 15.4883V20.3418H4.60307Z" fill="black"/>
<path d="M21.4248 29.9669C21.9102 29.9669 22.3037 29.5734 22.3037 29.088V22.0996H17.7185V22.9564C17.7185 23.4418 17.3249 23.8353 16.8396 23.8353C16.3542 23.8353 15.9606 23.4418 15.9606 22.9564V22.0996H12.0396V22.9564C12.0396 23.4418 11.6461 23.8353 11.1607 23.8353C10.6753 23.8353 10.2818 23.4418 10.2818 22.9564V22.0996H6.36082V22.9564C6.36082 23.4418 5.9673 23.8353 5.48191 23.8353C4.99652 23.8353 4.60301 23.4418 4.60301 22.9564V22.0996H0V29.088C0 29.5734 0.393516 29.9669 0.878906 29.9669H21.4248V29.9669Z" fill="black"/>
</g>
<defs>
<clipPath id="clip0_75_3136">
<rect width="30" height="30" fill="white"/>
</clipPath>
</defs>
</svg>
