<svg width="24" height="24" viewBox="0 0 24 24" fill="none" xmlns="http://www.w3.org/2000/svg">
<g clip-path="url(#clip0_75_3335)">
<path d="M13.4277 12.398H14.0368V11.6035L13.4277 12.398Z" fill="black"/>
<path d="M20.4853 3.51469C18.2188 1.24823 15.2053 0 12 0C8.79469 0 5.78123 1.24823 3.51469 3.51469C1.24823 5.78123 0 8.79469 0 12C0 15.2053 1.24823 18.2188 3.51469 20.4853C5.78123 22.7518 8.79469 24 12 24C15.2053 24 18.2188 22.7518 20.4853 20.4853C22.7518 18.2188 24 15.2053 24 12C24 8.79469 22.7518 5.78123 20.4853 3.51469ZM15.732 12.3973V13.5228H15.1493V14.3438H13.8914V13.5228H12.1898V12.3973L14.2886 9.72248H15.1493V12.3973H15.732ZM12 20.2031C7.4768 20.2031 3.79688 16.5232 3.79688 12C3.79688 7.4768 7.4768 3.79688 12 3.79688V2.51128L14.5043 4.5L12 6.48872V5.20312C8.2522 5.20312 5.20312 8.2522 5.20312 12C5.20312 15.7478 8.2522 18.7969 12 18.7969C15.7478 18.7969 18.7969 15.7478 18.7969 12H20.2031C20.2031 16.5232 16.5232 20.2031 12 20.2031ZM10.2367 10.8215C10.1661 10.7685 10.069 10.7421 9.94542 10.7421C9.79978 10.7421 9.66178 10.7796 9.53161 10.8546C9.40139 10.9297 9.26564 11.0511 9.12445 11.2188L8.32992 10.2852C8.41373 10.1925 8.52197 10.1076 8.65434 10.0303C8.78677 9.95316 8.93344 9.88692 9.09459 9.8317C9.25566 9.77658 9.4267 9.7335 9.60773 9.70261C9.78867 9.67177 9.97406 9.65625 10.1639 9.65625C10.6714 9.65625 11.0565 9.76111 11.3192 9.97073C11.5817 10.1804 11.7131 10.4729 11.7131 10.848C11.7131 10.9849 11.6955 11.1062 11.6602 11.2122C11.6248 11.3181 11.5774 11.4141 11.5178 11.5002C11.4583 11.5862 11.3865 11.6647 11.3027 11.7352C11.2188 11.8058 11.1306 11.8721 11.0379 11.9338C10.9275 12.0089 10.8116 12.0806 10.6903 12.149C10.5688 12.2175 10.4486 12.2936 10.3294 12.3774H11.786V13.503H8.29688C8.29688 13.2823 8.31441 13.0881 8.3498 12.9203C8.38509 12.7527 8.44247 12.6015 8.52197 12.4668C8.60142 12.3322 8.70403 12.2119 8.82984 12.1059C8.95566 12 9.11123 11.8964 9.29663 11.7947C9.53498 11.6668 9.72366 11.5642 9.86269 11.4869C10.0018 11.4097 10.1065 11.3468 10.1772 11.2981C10.2477 11.2496 10.293 11.2088 10.3129 11.1757C10.3328 11.1426 10.3427 11.1061 10.3427 11.0664C10.3427 10.9562 10.3073 10.8745 10.2367 10.8215Z" fill="black"/>
</g>
<defs>
<clipPath id="clip0_75_3335">
<rect width="24" height="24" fill="white"/>
</clipPath>
</defs>
</svg>
