<svg width="28" height="28" viewBox="0 0 28 28" fill="none" xmlns="http://www.w3.org/2000/svg">
<path fill-rule="evenodd" clip-rule="evenodd" d="M24.6636 5.6458V8.31358H22.7814C20.686 8.31563 18.6294 7.7484 16.8314 6.67247L14.4514 5.23358C14.3129 5.14985 14.1542 5.10559 13.9925 5.10559C13.8307 5.10559 13.672 5.14985 13.5336 5.23358L11.1614 6.66469C9.36284 7.73953 7.30658 8.30669 5.21136 8.3058H3.33691V5.6458C3.33691 5.40992 3.43007 5.18358 3.59613 5.01607C3.7622 4.84855 3.98771 4.75341 4.22358 4.75135H5.21914C7.47526 4.7519 9.68865 4.13602 11.6202 2.97024L14.0002 1.55469L16.3725 2.97802C18.3053 4.14089 20.5179 4.75654 22.7736 4.75913H23.7769C24.0108 4.76313 24.234 4.85783 24.3995 5.02326C24.5649 5.18868 24.6596 5.41189 24.6636 5.6458Z" fill="#1D1D1D"/>
<path fill-rule="evenodd" clip-rule="evenodd" d="M22.7814 10.1093C20.3642 10.1082 17.9928 9.44949 15.9214 8.20378L14.0002 7.03711L12.0791 8.18044C10.0095 9.43325 7.63836 10.1 5.21914 10.1093H3.33691V12.4427C3.34236 15.1427 4.11612 17.7855 5.56776 20.0621C7.01941 22.3387 9.089 24.1552 11.5347 25.2993L14.0002 26.4427L16.4502 25.2993C18.8994 24.1582 20.9728 22.3429 22.4274 20.0659C23.882 17.7889 24.6577 15.1446 24.6636 12.4427V10.1093H22.7814ZM14.4514 17.8871C14.2862 18.0459 14.066 18.1345 13.8369 18.1345C13.6078 18.1345 13.3876 18.0459 13.2225 17.8871L10.7336 15.3982L11.9858 14.146L13.8525 16.0049L16.9636 12.8938L18.2158 14.146L14.4514 17.8871Z" fill="#1D1D1D"/>
</svg>
