<svg width="114" height="45" viewBox="0 0 114 45" fill="none" xmlns="http://www.w3.org/2000/svg">
<path d="M7.32573 44.7156C5.41773 44.7156 3.83973 44.0856 2.59173 42.8256C1.34373 41.5656 0.719727 40.0236 0.719727 38.1996C0.719727 36.3756 1.34373 34.8336 2.59173 33.5736C3.83973 32.3136 5.41773 31.6836 7.32573 31.6836C8.48973 31.6836 9.55773 31.9656 10.5297 32.5296C11.5017 33.0816 12.2517 33.8316 12.7797 34.7796L11.6637 35.4276C11.2677 34.6596 10.6797 34.0476 9.89973 33.5916C9.11973 33.1356 8.26173 32.9076 7.32573 32.9076C5.75373 32.9076 4.46973 33.4176 3.47373 34.4376C2.47773 35.4576 1.97973 36.7116 1.97973 38.1996C1.97973 39.6876 2.47773 40.9416 3.47373 41.9616C4.46973 42.9816 5.75373 43.4916 7.32573 43.4916C8.26173 43.4916 9.11973 43.2636 9.89973 42.8076C10.6797 42.3516 11.2677 41.7396 11.6637 40.9716L12.7797 41.6016C12.2637 42.5496 11.5137 43.3056 10.5297 43.8696C9.55773 44.4336 8.48973 44.7156 7.32573 44.7156Z" fill="#212121"/>
<path d="M25.4538 42.8256C24.1938 44.0856 22.6518 44.7156 20.8278 44.7156C19.0038 44.7156 17.4618 44.0856 16.2018 42.8256C14.9418 41.5536 14.3118 40.0116 14.3118 38.1996C14.3118 36.3876 14.9418 34.8516 16.2018 33.5916C17.4618 32.3196 19.0038 31.6836 20.8278 31.6836C22.6518 31.6836 24.1938 32.3196 25.4538 33.5916C26.7138 34.8516 27.3438 36.3876 27.3438 38.1996C27.3438 40.0116 26.7138 41.5536 25.4538 42.8256ZM17.0838 41.9616C18.0918 42.9816 19.3398 43.4916 20.8278 43.4916C22.3158 43.4916 23.5638 42.9816 24.5718 41.9616C25.5798 40.9296 26.0838 39.6756 26.0838 38.1996C26.0838 36.7236 25.5798 35.4756 24.5718 34.4556C23.5638 33.4236 22.3158 32.9076 20.8278 32.9076C19.3398 32.9076 18.0918 33.4236 17.0838 34.4556C16.0758 35.4756 15.5718 36.7236 15.5718 38.1996C15.5718 39.6756 16.0758 40.9296 17.0838 41.9616Z" fill="#212121"/>
<path d="M41.1986 31.8996V44.4996H39.9386V33.8076L35.5286 41.1876H35.3486L30.9386 33.8076V44.4996H29.6786V31.8996H31.2446L35.4386 38.9196L39.6326 31.8996H41.1986Z" fill="#212121"/>
<path d="M48.7551 31.8996C49.8831 31.8996 50.8251 32.2776 51.5811 33.0336C52.3371 33.7896 52.7151 34.7316 52.7151 35.8596C52.7151 36.9876 52.3371 37.9296 51.5811 38.6856C50.8251 39.4416 49.8831 39.8196 48.7551 39.8196H45.5151V44.4996H44.2551V31.8996H48.7551ZM48.7551 38.6316C49.5351 38.6316 50.1771 38.3736 50.6811 37.8576C51.1971 37.3296 51.4551 36.6636 51.4551 35.8596C51.4551 35.0556 51.1971 34.3956 50.6811 33.8796C50.1771 33.3516 49.5351 33.0876 48.7551 33.0876H45.5151V38.6316H48.7551Z" fill="#212121"/>
<path d="M62.7923 44.4996L59.8403 39.4596H56.3123V44.4996H55.0523V31.8996H60.0923C61.1363 31.8996 62.0243 32.2716 62.7563 33.0156C63.5003 33.7476 63.8723 34.6356 63.8723 35.6796C63.8723 36.5316 63.6143 37.2936 63.0983 37.9656C62.5943 38.6256 61.9463 39.0696 61.1543 39.2976L64.2323 44.4996H62.7923ZM56.3123 33.0876V38.2716H60.0923C60.7883 38.2716 61.3823 38.0196 61.8743 37.5156C62.3663 36.9996 62.6123 36.3876 62.6123 35.6796C62.6123 34.9596 62.3663 34.3476 61.8743 33.8436C61.3823 33.3396 60.7883 33.0876 60.0923 33.0876H56.3123Z" fill="#212121"/>
<path d="M76.6406 42.8256C75.3806 44.0856 73.8386 44.7156 72.0146 44.7156C70.1906 44.7156 68.6486 44.0856 67.3886 42.8256C66.1286 41.5536 65.4986 40.0116 65.4986 38.1996C65.4986 36.3876 66.1286 34.8516 67.3886 33.5916C68.6486 32.3196 70.1906 31.6836 72.0146 31.6836C73.8386 31.6836 75.3806 32.3196 76.6406 33.5916C77.9006 34.8516 78.5306 36.3876 78.5306 38.1996C78.5306 40.0116 77.9006 41.5536 76.6406 42.8256ZM68.2706 41.9616C69.2786 42.9816 70.5266 43.4916 72.0146 43.4916C73.5026 43.4916 74.7506 42.9816 75.7586 41.9616C76.7666 40.9296 77.2706 39.6756 77.2706 38.1996C77.2706 36.7236 76.7666 35.4756 75.7586 34.4556C74.7506 33.4236 73.5026 32.9076 72.0146 32.9076C70.5266 32.9076 69.2786 33.4236 68.2706 34.4556C67.2626 35.4756 66.7586 36.7236 66.7586 38.1996C66.7586 39.6756 67.2626 40.9296 68.2706 41.9616Z" fill="#212121"/>
<path d="M92.3854 31.8996V44.4996H91.1254V33.8076L86.7154 41.1876H86.5354L82.1254 33.8076V44.4996H80.8654V31.8996H82.4314L86.6254 38.9196L90.8194 31.8996H92.3854Z" fill="#212121"/>
<path d="M103.83 44.4996L102.66 41.4036H96.6839L95.5139 44.4996H94.1819L99.0239 31.8996H100.32L105.162 44.4996H103.83ZM97.1339 40.2156H102.21L99.6719 33.4656L97.1339 40.2156Z" fill="#212121"/>
<path d="M113.983 31.8996V33.0876H110.113V44.4996H108.853V33.0876H104.983V31.8996H113.983Z" fill="#212121"/>
<path fill-rule="evenodd" clip-rule="evenodd" d="M18.579 3.57C16.3857 1.19 13.6207 0 10.284 0H0.729004V10.5H3.984V3.08H10.284C12.7807 3.08 14.8223 3.955 16.409 5.705C17.6274 7.0488 18.378 8.64714 18.6608 10.5H21.8023C21.4825 7.8246 20.4081 5.5146 18.579 3.57ZM21.7334 14.5H18.5719C18.2374 16.1419 17.5164 17.5736 16.409 18.795C14.8223 20.545 12.7807 21.42 10.284 21.42H3.984V14.5H0.729004V24.5H10.284C13.6207 24.5 16.3857 23.3217 18.579 20.965C20.2936 19.1241 21.345 16.9691 21.7334 14.5ZM25.8511 14.5H29.1061V21.42H40.4811V24.5H25.8511V14.5ZM29.1061 10.5H25.8511V0H40.3061V3.08H29.1061V10.5ZM44.4106 14.5V24.5H58.2356V21.42H47.6656V14.5H44.4106ZM47.6656 10.5H44.4106V0H47.6656V10.5ZM61.5005 14.5V24.5H76.1305V21.42H64.7555V14.5H61.5005ZM64.7555 10.5H61.5005V0H75.9555V3.08H64.7555V10.5ZM85.2751 14.5V24.5H88.4951V14.5H85.2751ZM88.4951 10.5H85.2751V3.08H78.0651V0H95.7401V3.08H88.4951V10.5ZM98.9614 14.5V24.5H113.591V21.42H102.216V14.5H98.9614ZM102.216 10.5H98.9614V0H113.416V3.08H102.216V10.5Z" fill="#376CE5"/>
</svg>
