<svg width="97" height="39" viewBox="0 0 97 39" fill="none" xmlns="http://www.w3.org/2000/svg">
<path d="M5.6248 38.0739C4.0002 38.0739 2.65658 37.5375 1.59395 36.4646C0.531316 35.3918 0 34.0788 0 32.5257C0 30.9727 0.531316 29.6597 1.59395 28.5868C2.65658 27.514 4.0002 26.9776 5.6248 26.9776C6.61591 26.9776 7.52528 27.2177 8.3529 27.6979C9.18053 28.1679 9.81913 28.8065 10.2687 29.6137L9.31847 30.1655C8.98129 29.5115 8.48062 28.9904 7.81648 28.6022C7.15233 28.2139 6.42177 28.0198 5.6248 28.0198C4.28629 28.0198 3.19301 28.454 2.34494 29.3225C1.49688 30.191 1.07285 31.2588 1.07285 32.5257C1.07285 33.7927 1.49688 34.8605 2.34494 35.729C3.19301 36.5975 4.28629 37.0317 5.6248 37.0317C6.42177 37.0317 7.15233 36.8376 7.81648 36.4493C8.48062 36.061 8.98129 35.5399 9.31847 34.886L10.2687 35.4224C9.82935 36.2296 9.19075 36.8733 8.3529 37.3536C7.52528 37.8338 6.61591 38.0739 5.6248 38.0739Z" fill="#131313"/>
<path d="M21.0603 36.4646C19.9875 37.5375 18.6745 38.0739 17.1214 38.0739C15.5683 38.0739 14.2554 37.5375 13.1825 36.4646C12.1097 35.3816 11.5732 34.0686 11.5732 32.5257C11.5732 30.9829 12.1097 29.675 13.1825 28.6022C14.2554 27.5191 15.5683 26.9776 17.1214 26.9776C18.6745 26.9776 19.9875 27.5191 21.0603 28.6022C22.1332 29.675 22.6696 30.9829 22.6696 32.5257C22.6696 34.0686 22.1332 35.3816 21.0603 36.4646ZM13.9335 35.729C14.7918 36.5975 15.8544 37.0317 17.1214 37.0317C18.3884 37.0317 19.451 36.5975 20.3093 35.729C21.1676 34.8502 21.5967 33.7825 21.5967 32.5257C21.5967 31.269 21.1676 30.2063 20.3093 29.3378C19.451 28.4591 18.3884 28.0198 17.1214 28.0198C15.8544 28.0198 14.7918 28.4591 13.9335 29.3378C13.0752 30.2063 12.6461 31.269 12.6461 32.5257C12.6461 33.7825 13.0752 34.8502 13.9335 35.729Z" fill="#131313"/>
<path d="M34.4665 27.1615V37.89H33.3936V28.7861L29.6387 35.0699H29.4854L25.7304 28.7861V37.89H24.6576V27.1615H25.991L29.562 33.1388L33.1331 27.1615H34.4665Z" fill="#131313"/>
<path d="M40.9006 27.1615C41.8611 27.1615 42.6631 27.4833 43.3069 28.1271C43.9506 28.7708 44.2724 29.5728 44.2724 30.5333C44.2724 31.4938 43.9506 32.2958 43.3069 32.9395C42.6631 33.5833 41.8611 33.9051 40.9006 33.9051H38.1418V37.89H37.069V27.1615H40.9006ZM40.9006 32.8936C41.5647 32.8936 42.1114 32.6739 42.5405 32.2345C42.9799 31.785 43.1996 31.2179 43.1996 30.5333C43.1996 29.8487 42.9799 29.2868 42.5405 28.8474C42.1114 28.3978 41.5647 28.173 40.9006 28.173H38.1418V32.8936H40.9006Z" fill="#131313"/>
<path d="M52.8528 37.89L50.3393 33.5986H47.3353V37.89H46.2625V27.1615H50.5539C51.4428 27.1615 52.1989 27.4782 52.8222 28.1117C53.4557 28.735 53.7724 29.4911 53.7724 30.38C53.7724 31.1055 53.5527 31.7543 53.1134 32.3265C52.6842 32.8885 52.1325 33.2665 51.4581 33.4606L54.0789 37.89H52.8528ZM47.3353 28.173V32.587H50.5539C51.1465 32.587 51.6522 32.3725 52.0712 31.9433C52.4901 31.504 52.6996 30.9829 52.6996 30.38C52.6996 29.767 52.4901 29.2459 52.0712 28.8167C51.6522 28.3876 51.1465 28.173 50.5539 28.173H47.3353Z" fill="#131313"/>
<path d="M64.6442 36.4646C63.5714 37.5375 62.2584 38.0739 60.7053 38.0739C59.1523 38.0739 57.8393 37.5375 56.7664 36.4646C55.6936 35.3816 55.1572 34.0686 55.1572 32.5257C55.1572 30.9829 55.6936 29.675 56.7664 28.6022C57.8393 27.5191 59.1523 26.9776 60.7053 26.9776C62.2584 26.9776 63.5714 27.5191 64.6442 28.6022C65.7171 29.675 66.2535 30.9829 66.2535 32.5257C66.2535 34.0686 65.7171 35.3816 64.6442 36.4646ZM57.5174 35.729C58.3757 36.5975 59.4384 37.0317 60.7053 37.0317C61.9723 37.0317 63.035 36.5975 63.8932 35.729C64.7515 34.8502 65.1806 33.7825 65.1806 32.5257C65.1806 31.269 64.7515 30.2063 63.8932 29.3378C63.035 28.4591 61.9723 28.0198 60.7053 28.0198C59.4384 28.0198 58.3757 28.4591 57.5174 29.3378C56.6592 30.2063 56.23 31.269 56.23 32.5257C56.23 33.7825 56.6592 34.8502 57.5174 35.729Z" fill="#131313"/>
<path d="M78.0504 27.1615V37.89H76.9776V28.7861L73.2226 35.0699H73.0693L69.3144 28.7861V37.89H68.2415V27.1615H69.5749L73.146 33.1388L76.717 27.1615H78.0504Z" fill="#131313"/>
<path d="M87.795 37.89L86.7988 35.2538H81.7104L80.7142 37.89H79.5801L83.7029 27.1615H84.8064L88.9292 37.89H87.795ZM82.0936 34.2423H86.4157L84.2546 28.4949L82.0936 34.2423Z" fill="#131313"/>
<path d="M96.4403 27.1615V28.173H93.1452V37.89H92.0723V28.173H88.7771V27.1615H96.4403Z" fill="#131313"/>
<path fill-rule="evenodd" clip-rule="evenodd" d="M15.2065 3.03974C13.339 1.01325 10.9847 0 8.14359 0H0.0078125V8.94041H2.77934V2.62252H8.14359C10.2694 2.62252 12.0078 3.36756 13.3588 4.85763C14.3962 6.00183 15.0353 7.36276 15.2761 8.94041H17.9511C17.6788 6.6624 16.7639 4.69551 15.2065 3.03974ZM17.8924 12.3463H15.2004C14.9156 13.7443 14.3017 14.9634 13.3588 16.0033C12.0078 17.4934 10.2694 18.2384 8.14359 18.2384H2.77934V12.3463H0.0078125V20.861H8.14359C10.9847 20.861 13.339 19.8577 15.2065 17.851C16.6664 16.2836 17.5617 14.4486 17.8924 12.3463ZM21.3985 12.3463H24.17V18.2384H33.8554V20.861H21.3985V12.3463ZM24.17 8.94041H21.3985V0H33.7064V2.62252H24.17V8.94041ZM37.2013 12.3463V20.861H48.9729V18.2384H39.9729V12.3463H37.2013ZM39.9729 8.94041H37.2013V0H39.9729V8.94041ZM51.7528 12.3463V20.861H64.2098V18.2384H54.5243V12.3463H51.7528ZM54.5243 8.94041H51.7528V0H64.0608V2.62252H54.5243V8.94041ZM71.9961 12.3463V20.861H74.7378V12.3463H71.9961ZM74.7378 8.94041H71.9961V2.62252H65.857V0H80.9067V2.62252H74.7378V8.94041ZM83.6496 12.3463V20.861H96.1066V18.2384H86.4211V12.3463H83.6496ZM86.4211 8.94041H83.6496V0H95.9576V2.62252H86.4211V8.94041Z" fill="white"/>
</svg>
