<svg width="25" height="24" viewBox="0 0 25 24" fill="none" xmlns="http://www.w3.org/2000/svg">
<g clip-path="url(#clip0_75_2455)">
<path d="M21.2138 3.51471C18.9473 1.24823 15.9338 0 12.7285 0C9.52325 0 6.5097 1.24823 4.24323 3.51471C1.97675 5.78119 0.728516 8.79474 0.728516 12C0.728516 15.2054 1.97675 18.2188 4.24323 20.4853C6.5097 22.7518 9.52325 24 12.7285 24C15.9338 24 18.9473 22.7518 21.2138 20.4853C23.4803 18.2188 24.7285 15.2054 24.7285 12C24.7285 8.79474 23.4803 5.78119 21.2138 3.51471ZM17.9188 15.5328C18.3764 15.9906 18.3764 16.7325 17.9188 17.1901C17.6899 17.419 17.39 17.5334 17.0901 17.5334C16.7902 17.5334 16.4902 17.419 16.2614 17.1901L12.7285 13.6573L9.19568 17.1903C8.9668 17.419 8.66687 17.5334 8.36694 17.5334C8.06702 17.5334 7.76709 17.419 7.53821 17.1903C7.08063 16.7325 7.08063 15.9906 7.53821 15.533L11.0712 12L7.53821 8.46716C7.08063 8.0094 7.08063 7.26746 7.53821 6.80988C7.99597 6.35211 8.73792 6.35211 9.1955 6.80988L12.7285 10.3427L16.2614 6.80988C16.7191 6.35229 17.4611 6.35211 17.9186 6.80988C18.3764 7.26746 18.3764 8.0094 17.9186 8.46716L14.3858 12L17.9188 15.5328Z" fill="#2C2C2C"/>
</g>
<defs>
<clipPath id="clip0_75_2455">
<rect width="24" height="24" fill="white" transform="translate(0.728516)"/>
</clipPath>
</defs>
</svg>
