<svg width="21" height="24" viewBox="0 0 21 24" fill="none" xmlns="http://www.w3.org/2000/svg">
<path d="M11.5938 14.2188C11.5938 14.8226 11.1037 15.3126 10.5 15.3126C9.89625 15.3126 9.40625 14.8226 9.40625 14.2188C9.40625 13.6151 9.89625 13.1251 10.5 13.1251C11.1037 13.1251 11.5938 13.6151 11.5938 14.2188Z" fill="#2C2C2C"/>
<path d="M9.83295 11.998L9.64395 7.455C9.63345 7.20738 9.83208 7 10.0806 7H10.9188C11.1673 7 11.366 7.20737 11.3563 7.45587L11.1673 11.9989C11.1603 12.1389 11.0448 12.25 10.904 12.25H10.0955C9.95458 12.25 9.83908 12.1389 9.83295 11.998Z" fill="#2C2C2C"/>
<path d="M20.5713 3.49475C16.3958 3.38538 13.0384 1.69225 10.5 0C7.96163 1.69225 4.60425 3.38538 0.42875 3.49475C0.191625 3.50087 0 3.69075 0 3.92787C0 10.2314 0.01925 15.7885 0.875 17.5C2.59613 20.9422 6.125 22.75 10.5 23.625C14.875 22.75 18.4039 20.9422 20.125 17.5C20.9807 15.7885 21 10.2314 21 3.92787C21 3.69075 20.8084 3.50087 20.5713 3.49475ZM16.6486 16.625H4.35137C3.69075 16.625 3.283 15.8856 3.6225 15.3055L9.77112 4.7985C10.101 4.23413 10.899 4.23413 11.2289 4.7985L17.3775 15.3055C17.7179 15.8856 17.3092 16.625 16.6486 16.625Z" fill="#2C2C2C"/>
</svg>
