<svg width="24" height="24" viewBox="0 0 24 24" fill="none" xmlns="http://www.w3.org/2000/svg">
<g clip-path="url(#clip0_75_2463)">
<path d="M12 20.4814C7.29167 20.4814 3.47495 16.6644 3.47495 11.9561C3.47495 11.8577 3.47903 11.7602 3.48215 11.6623L0.29087 10.8847C0.25895 11.2378 0.23999 11.5946 0.23999 11.9558C0.23999 18.451 5.50535 23.7158 12 23.7158C13.2814 23.7158 14.5138 23.5082 15.6681 23.1293L14.1127 20.2169C13.4366 20.3892 12.7291 20.4814 12 20.4814Z" fill="#2C2C2C"/>
<path d="M10.5846 3.54936V0.283203C6.0606 0.825843 2.32836 3.93552 0.884521 8.11512L4.04652 8.88552C5.115 6.11904 7.58364 4.05072 10.5846 3.54936Z" fill="#2C2C2C"/>
<path d="M18.4709 6.40776L20.7631 4.11504C18.9062 2.0412 16.3243 0.632163 13.415 0.283203V3.54936C15.4262 3.88536 17.1982 4.92504 18.4709 6.40776Z" fill="#2C2C2C"/>
<path d="M22.4051 6.47656L19.965 8.91664C20.3255 9.86128 20.5249 10.8846 20.5249 11.9555C20.5249 14.9241 19.0064 17.5372 16.7056 19.0634L18.2344 21.9254C21.5521 19.8462 23.7599 16.1598 23.7599 11.9555C23.7599 9.97672 23.2688 8.11336 22.4051 6.47656Z" fill="#2C2C2C"/>
<path d="M13.8181 8.45688H16.4934V14.6208H13.8181V8.45688Z" fill="#2C2C2C"/>
<path d="M13.3381 7.97688V7.1484H10.6624V10.055V14.6208H13.3381V7.97688Z" fill="#2C2C2C"/>
<path d="M7.50635 10.535H10.1823V14.6206H7.50635V10.535Z" fill="#2C2C2C"/>
</g>
<defs>
<clipPath id="clip0_75_2463">
<rect width="24" height="24" fill="white"/>
</clipPath>
</defs>
</svg>
