<svg viewBox="0 0 24 24"  xmlns="http://www.w3.org/2000/svg" style="display:none">

	<symbol viewBox="0 0 19 19" id="close">
		<path d="M19 1.9L17.1 0L9.5 7.6L1.9 0L0 1.9L7.6 9.5L0 17.1L1.9 19L9.5 11.4L17.1 19L19 17.1L11.4 9.5L19 1.9Z"/>
	</symbol>

	<symbol viewBox="0 0 8 8" id="select-arrow">
		<path fill-rule="evenodd" clip-rule="evenodd" d="M1.49995 2.29291L3.99995 4.79291L6.49995 2.29291L7.20706 3.00001L3.99995 6.20712L0.792847 3.00001L1.49995 2.29291Z"/>
	</symbol>

	<symbol viewBox="0 0 17 17" id="select-arrow-2">
		<path d="M9.16334 13.2225L16.7284 5.65729C16.9035 5.48232 17 5.24874 17 4.99969C17 4.75063 16.9035 4.51706 16.7284 4.34208L16.1714 3.78496C15.8085 3.42243 15.2186 3.42243 14.8562 3.78496L8.50352 10.1377L2.14378 3.77791C1.96867 3.60293 1.73523 3.50632 1.48631 3.50632C1.23712 3.50632 1.00368 3.60293 0.828432 3.77791L0.271584 4.33503C0.0964711 4.51015 -5.40823e-08 4.74358 -6.49688e-08 4.99264C-7.58554e-08 5.24169 0.0964711 5.47527 0.271583 5.65024L7.84357 13.2225C8.01924 13.3979 8.25378 13.4942 8.50311 13.4937C8.75341 13.4942 8.98781 13.3979 9.16334 13.2225Z"/>
	</symbol>

	<symbol viewBox="0 0 16 17" id="arrow-prev">
		<path d="M4.20737 7.99274L9.99253 2.20768C10.1263 2.07377 10.3049 2 10.4954 2C10.6859 2 10.8645 2.07377 10.9983 2.20768L11.4243 2.63361C11.7015 2.91116 11.7015 3.36224 11.4243 3.63936L6.56637 8.4973L11.4297 13.3606C11.5635 13.4945 11.6374 13.6731 11.6374 13.8634C11.6374 14.054 11.5635 14.2325 11.4297 14.3665L11.0037 14.7923C10.8698 14.9262 10.6912 15 10.5008 15C10.3103 15 10.1317 14.9262 9.99792 14.7923L4.20737 9.00198C4.07324 8.86764 3.99958 8.68829 4 8.49762C3.99958 8.30622 4.07324 8.12697 4.20737 7.99274Z"/>
	</symbol>

	<symbol viewBox="0 0 16 17" id="arrow-next">
		<path d="M11.43 7.99274L5.64486 2.20768C5.51105 2.07377 5.33244 2 5.14198 2C4.95153 2 4.77291 2.07377 4.63911 2.20768L4.21307 2.63361C3.93585 2.91116 3.93585 3.36224 4.21307 3.63936L9.07102 8.4973L4.20768 13.3606C4.07388 13.4945 4 13.6731 4 13.8634C4 14.054 4.07388 14.2325 4.20768 14.3665L4.63372 14.7923C4.76763 14.9262 4.94614 15 5.13659 15C5.32705 15 5.50566 14.9262 5.63947 14.7923L11.43 9.00198C11.5641 8.86764 11.6378 8.68829 11.6374 8.49762C11.6378 8.30622 11.5641 8.12697 11.43 7.99274Z"/>
	</symbol>

	<symbol viewBox="0 0 24 24" id="comment">
		<path d="M21 1.5H3C1.7595 1.5 0.75 2.5095 0.75 3.75V15.75C0.75 16.9905 1.7595 18 3 18H5.25V21.75C5.25 22.0387 5.41575 22.3005 5.6745 22.4257C5.77875 22.4752 5.88975 22.5 6 22.5C6.16725 22.5 6.333 22.4445 6.46875 22.3358L11.8882 18H21C22.2405 18 23.25 16.9905 23.25 15.75V3.75C23.25 2.5095 22.2405 1.5 21 1.5ZM12 12H6C5.58525 12 5.25 11.664 5.25 11.25C5.25 10.836 5.58525 10.5 6 10.5H12C12.4147 10.5 12.75 10.836 12.75 11.25C12.75 11.664 12.4147 12 12 12ZM18 9H6C5.58525 9 5.25 8.664 5.25 8.25C5.25 7.836 5.58525 7.5 6 7.5H18C18.4147 7.5 18.75 7.836 18.75 8.25C18.75 8.664 18.4147 9 18 9Z"/>
	</symbol>
		
</svg>