<svg width="27" height="27" viewBox="0 0 27 27" fill="none" xmlns="http://www.w3.org/2000/svg">
<g clip-path="url(#clip0_75_3283)">
<path d="M14.8493 20.5579H8.45824V18.9725H14.7954C15.0804 16.1903 17.3342 13.9828 20.1368 13.7701V0.144531H0V26.8572H20.1368V25.369C17.467 25.1663 15.2955 23.1533 14.8493 20.5579ZM5.19698 14.7429C5.64136 14.7429 5.97044 15.1062 5.98967 15.5356C6.00886 15.9638 5.61161 16.3283 5.19698 16.3283C4.75259 16.3283 4.42351 15.9651 4.40428 15.5356C4.38509 15.1076 4.78234 14.7429 5.19698 14.7429ZM4.40428 11.1364C4.38509 10.7083 4.78234 10.3437 5.19698 10.3437C5.64136 10.3437 5.97044 10.7069 5.98967 11.1364C6.00886 11.5645 5.61161 11.9291 5.19698 11.9291C4.75259 11.9291 4.42351 11.5659 4.40428 11.1364ZM5.19698 19.1423C5.64136 19.1423 5.97044 19.5055 5.98967 19.935C6.00886 20.3631 5.61161 20.7276 5.19698 20.7276C4.75259 20.7276 4.42351 20.3644 4.40428 19.935C4.38509 19.5068 4.78234 19.1423 5.19698 19.1423ZM5.19698 7.52977C4.75259 7.52977 4.42351 7.16656 4.40428 6.73708C4.38509 6.30897 4.78234 5.94438 5.19698 5.94438C5.64136 5.94438 5.97044 6.30759 5.98967 6.73708C6.00886 7.16518 5.61161 7.52977 5.19698 7.52977ZM15.5848 16.2435H8.45824V14.6581H15.5848V16.2435ZM15.5848 11.9291H8.45824V10.3437H15.5848V11.9291ZM15.5848 7.61464H8.45824V6.02925H15.5848V7.61464Z" fill="black"/>
<path d="M17.305 19.1148L18.2969 17.8782L20.6681 19.7796L23.9615 17.0263C23.1889 16.0016 21.9613 15.3379 20.5815 15.3379C18.2488 15.3379 16.3506 17.2356 16.3506 19.5688C16.3506 21.9014 18.2488 23.7997 20.5815 23.7997C22.9146 23.7997 24.8124 21.9014 24.8124 19.5688C24.8124 19.1983 24.7643 18.839 24.675 18.4965L20.6893 21.8285L17.305 19.1148Z" fill="black"/>
<path d="M23.9614 17.0279C24.288 17.4613 24.5332 17.9585 24.6749 18.4981L27.0001 16.5544L25.9833 15.3379L23.9614 17.0279Z" fill="black"/>
</g>
<defs>
<clipPath id="clip0_75_3283">
<rect width="27" height="27" fill="white"/>
</clipPath>
</defs>
</svg>
