<svg width="29" height="29" viewBox="0 0 29 29" fill="none" xmlns="http://www.w3.org/2000/svg">
<g clip-path="url(#clip0_75_3255)">
<path d="M8.34415 21.9616C8.15113 21.7686 7.88935 21.6602 7.61639 21.6602C7.34343 21.6602 7.08164 21.7686 6.88863 21.9616L5.26279 23.5874L4.51957 22.8442C4.32436 22.649 4.09262 22.4941 3.83757 22.3885C3.58252 22.2828 3.30916 22.2285 3.0331 22.2285C2.75704 22.2285 2.48368 22.2828 2.22863 22.3885C1.97358 22.4941 1.74184 22.649 1.54664 22.8442C1.25382 23.137 1.02155 23.4846 0.86308 23.8672C0.70461 24.2498 0.623047 24.6598 0.623047 25.0739C0.623047 25.488 0.70461 25.898 0.86308 26.2806C1.02155 26.6632 1.25382 27.0108 1.54664 27.3036C1.83944 27.5964 2.18706 27.8287 2.56963 27.9871C2.95221 28.1456 3.36225 28.2272 3.77634 28.2272C4.19044 28.2272 4.60048 28.1456 4.98305 27.9871C5.36562 27.8287 5.71324 27.5964 6.00605 27.3036C6.27313 27.0367 6.46336 26.7027 6.55676 26.3369C6.65015 25.971 6.64324 25.5868 6.53677 25.2245L8.34417 23.4171C8.53717 23.2241 8.6456 22.9623 8.6456 22.6893C8.6456 22.4164 8.53715 22.1546 8.34415 21.9616Z" fill="#1D1D1D"/>
<path d="M1.54664 6.15642C1.81355 6.42351 2.14749 6.61374 2.51335 6.70713C2.87921 6.80052 3.26347 6.79362 3.62574 6.68714L5.43314 8.49455C5.52871 8.59012 5.64216 8.66593 5.76703 8.71765C5.8919 8.76938 6.02573 8.796 6.16088 8.796C6.29604 8.796 6.42987 8.76938 6.55474 8.71765C6.67961 8.66593 6.79306 8.59012 6.88863 8.49455C6.9842 8.39898 7.06002 8.28552 7.11174 8.16066C7.16346 8.03579 7.19009 7.90195 7.19009 7.7668C7.19009 7.63164 7.16346 7.49781 7.11174 7.37294C7.06002 7.24807 6.9842 7.13461 6.88863 7.03905L5.26279 5.41319L6.00605 4.66995C6.20125 4.47475 6.3561 4.243 6.46174 3.98795C6.56739 3.73291 6.62176 3.45955 6.62176 3.18348C6.62176 2.90742 6.56739 2.63406 6.46174 2.37901C6.3561 2.12396 6.20125 1.89222 6.00605 1.69701C5.71324 1.4042 5.36562 1.17194 4.98305 1.01347C4.60048 0.855 4.19044 0.773438 3.77634 0.773438C3.36225 0.773438 2.95221 0.855 2.56963 1.01347C2.18706 1.17194 1.83944 1.4042 1.54664 1.69701C1.25382 1.98982 1.02155 2.33744 0.86308 2.72001C0.70461 3.10258 0.623047 3.51262 0.623047 3.92672C0.623047 4.34081 0.70461 4.75085 0.86308 5.13343C1.02155 5.516 1.25382 5.86362 1.54664 6.15642Z" fill="#1D1D1D"/>
<path d="M27.4534 22.8442C27.2582 22.649 27.0265 22.4941 26.7714 22.3885C26.5164 22.2828 26.243 22.2285 25.967 22.2285C25.6909 22.2285 25.4176 22.2828 25.1625 22.3885C24.9075 22.4941 24.6757 22.649 24.4805 22.8442L23.7373 23.5874L22.1114 21.9616C21.9184 21.7686 21.6566 21.6602 21.3837 21.6602C21.1107 21.6602 20.8489 21.7686 20.6559 21.9616C20.4629 22.1546 20.3545 22.4164 20.3545 22.6893C20.3545 22.9623 20.4629 23.2241 20.6559 23.4171L22.4633 25.2245C22.3568 25.5868 22.3499 25.971 22.4433 26.3369C22.5367 26.7028 22.727 27.0367 22.994 27.3036C23.2869 27.5964 23.6345 27.8287 24.017 27.9872C24.3996 28.1456 24.8097 28.2272 25.2237 28.2272C25.6378 28.2272 26.0479 28.1456 26.4305 27.9872C26.813 27.8287 27.1606 27.5964 27.4535 27.3036C27.7463 27.0108 27.9785 26.6632 28.137 26.2806C28.2955 25.8981 28.377 25.488 28.377 25.0739C28.377 24.6598 28.2955 24.2498 28.137 23.8672C27.9785 23.4846 27.7463 23.137 27.4534 22.8442Z" fill="#1D1D1D"/>
<path d="M22.1115 8.49455C22.2071 8.59012 22.3205 8.66593 22.4454 8.71765C22.5703 8.76938 22.7041 8.796 22.8393 8.796C22.9744 8.796 23.1082 8.76938 23.2331 8.71765C23.358 8.66593 23.4714 8.59012 23.567 8.49455L25.3744 6.68714C25.7367 6.79362 26.1209 6.80052 26.4868 6.70713C26.8527 6.61374 27.1866 6.42351 27.4535 6.15642C27.7463 5.86362 27.9786 5.516 28.1371 5.13343C28.2955 4.75086 28.3771 4.34081 28.3771 3.92672C28.3771 3.51262 28.2955 3.10258 28.1371 2.72001C27.9786 2.33744 27.7463 1.98982 27.4535 1.69701C27.1607 1.4042 26.8131 1.17194 26.4305 1.01347C26.0479 0.855 25.6379 0.773438 25.2238 0.773438C24.8097 0.773438 24.3997 0.855 24.0171 1.01347C23.6345 1.17194 23.2869 1.4042 22.9941 1.69701C22.7989 1.89222 22.644 2.12396 22.5384 2.37901C22.4328 2.63406 22.3784 2.90742 22.3784 3.18348C22.3784 3.45955 22.4328 3.73291 22.5384 3.98795C22.644 4.243 22.7989 4.47475 22.9941 4.66995L23.7374 5.41319L22.1115 7.03907C22.0159 7.13464 21.9401 7.24809 21.8884 7.37296C21.8367 7.49783 21.8101 7.63166 21.8101 7.76682C21.8101 7.90198 21.8367 8.03581 21.8884 8.16068C21.9401 8.28555 22.0159 8.39898 22.1115 8.49455Z" fill="#1D1D1D"/>
<path d="M14.5001 7.04688C13.0261 7.04688 11.5852 7.48397 10.3596 8.30288C9.13398 9.1218 8.17875 10.2858 7.61467 11.6476C7.05059 13.0094 6.903 14.5079 7.19057 15.9535C7.47813 17.3992 8.18794 18.7272 9.23022 19.7695C10.2725 20.8117 11.6004 21.5215 13.0461 21.8091C14.4918 22.0967 15.9903 21.9491 17.3521 21.385C18.7139 20.8209 19.8779 19.8657 20.6968 18.6401C21.5157 17.4145 21.9528 15.9736 21.9528 14.4996C21.9528 12.523 21.1676 10.6274 19.7699 9.22973C18.3723 7.83207 16.4767 7.04688 14.5001 7.04688ZM10.0712 13.064C10.0712 11.9508 10.7326 11.0787 11.5769 11.0787C12.4212 11.0787 13.0827 11.9508 13.0827 13.064C13.0827 14.1773 12.4213 15.0494 11.5769 15.0494C10.7326 15.0494 10.0712 14.1773 10.0712 13.064ZM17.7927 17.2769C17.6669 17.4547 16.5214 18.9907 14.4996 18.9907C14.4663 18.9907 14.4331 18.9903 14.3993 18.9894C12.4786 18.9415 11.4034 17.5543 11.2074 17.2767C11.1513 17.1973 11.1291 17.0989 11.1456 17.0031C11.1621 16.9073 11.216 16.8219 11.2954 16.7659C11.3748 16.7098 11.4732 16.6876 11.569 16.7041C11.6648 16.7206 11.7501 16.7745 11.8062 16.8539C11.9046 16.9932 12.814 18.2166 14.4176 18.2566C16.1512 18.2979 17.1524 16.9127 17.1942 16.8537C17.2503 16.7743 17.3356 16.7205 17.4314 16.704C17.5272 16.6876 17.6257 16.7099 17.705 16.766C17.7844 16.8221 17.8382 16.9075 17.8547 17.0033C17.8711 17.0991 17.8488 17.1975 17.7927 17.2769ZM17.4232 15.0494C16.5789 15.0494 15.9175 14.1773 15.9175 13.064C15.9175 11.9508 16.5789 11.0787 17.4232 11.0787C18.2676 11.0787 18.9289 11.9508 18.9289 13.064C18.9289 14.1773 18.2675 15.0494 17.4232 15.0494Z" fill="#1D1D1D"/>
</g>
<defs>
<clipPath id="clip0_75_3255">
<rect width="29" height="29" fill="white"/>
</clipPath>
</defs>
</svg>
