<svg width="41" height="41" viewBox="0 0 41 41" fill="none" xmlns="http://www.w3.org/2000/svg">
<path d="M27.9046 25.3994C25.6787 25.3994 23.7371 26.6372 22.7299 28.4605C22.1615 28.3004 21.4036 28.1646 20.4671 28.1646C19.5609 28.1646 18.8226 28.2919 18.2608 28.4449C17.2514 26.6303 15.3149 25.3994 13.0952 25.3994C9.83765 25.3994 7.18726 28.0498 7.18726 31.3077C7.18726 34.5655 9.83765 37.2156 13.0952 37.2156C16.3531 37.2156 19.0031 34.5655 19.0031 31.3077C19.0031 31.1165 18.9934 30.9279 18.9756 30.7418C19.3432 30.6486 19.8424 30.5673 20.4671 30.5673C21.1299 30.5673 21.6504 30.6589 22.0229 30.7587C22.0064 30.9398 21.9967 31.1225 21.9967 31.3077C21.9967 34.5655 24.6471 37.2159 27.9046 37.2159C31.1622 37.2159 33.8126 34.5655 33.8126 31.3077C33.8126 28.0501 31.1622 25.3994 27.9046 25.3994Z" fill="#376CE5"/>
<path d="M37.8221 17.8073H33.8943C33.8073 17.3209 33.6937 16.6872 33.5667 15.9824H7.43318C7.30618 16.6872 7.19263 17.3209 7.10567 17.8073H3.17778C1.42576 17.8073 0 19.2328 0 20.9851V21.0123C0 22.7647 1.42576 24.1901 3.17778 24.1901H37.8221C39.5745 24.1901 40.9999 22.7647 40.9999 21.0123V20.9851C40.9999 19.2328 39.5742 17.8073 37.8221 17.8073Z" fill="#376CE5"/>
<path d="M32.5066 10.2042C31.983 7.46403 31.3949 5.67166 29.9388 4.62002C28.3457 3.46889 25.8667 3.61372 24.2955 4.95002C24.1976 5.03323 24.0962 5.12082 23.9917 5.21122C23.022 6.04891 21.8156 7.09117 20.4999 7.09117C19.1843 7.09117 17.9778 6.04891 17.0081 5.21122C16.9036 5.12082 16.8022 5.03323 16.7043 4.95002C15.1331 3.61372 12.6545 3.46889 11.061 4.62002C9.60492 5.67166 9.01685 7.46403 8.49322 10.2042C8.32274 11.0966 8.09595 12.3281 7.86792 13.5803H33.1319C32.9039 12.3281 32.6771 11.0966 32.5066 10.2042Z" fill="#376CE5"/>
</svg>
