<svg width="362" height="186" viewBox="0 0 362 186" fill="none" xmlns="http://www.w3.org/2000/svg">
<path d="M234.186 185.388C234.135 185.388 234.083 185.387 234.031 185.387C228.961 185.341 225.025 183.925 220.857 182.426C220.074 182.145 219.264 181.853 218.436 181.567C214.065 180.055 209.061 179.381 204.221 178.729C201.977 178.427 199.656 178.114 197.474 177.724L153.439 169.849C149.692 169.179 146.041 168.478 142.574 167.275C138.56 165.883 135.452 164.02 133.071 161.579C130.597 159.044 129.898 155.862 129.222 152.785C128.79 150.817 128.381 148.958 127.543 147.239C126.218 144.521 124.66 143.235 122.49 143.071C120.428 142.914 118.019 143.754 115.229 144.725C115.01 144.801 114.79 144.878 114.569 144.955C109.796 146.607 104.894 146.58 100.152 146.555C96.6331 146.535 92.9943 146.516 89.4661 147.193C84.1691 148.209 79.7045 150.546 75.8171 154.338L75.3916 154.753C73.4854 156.618 71.6849 158.38 69.5516 159.493C67.1102 160.766 64.5499 160.975 61.724 160.129C58.1106 159.047 55.3156 156.672 52.6125 154.374C50.667 152.721 48.6552 151.011 46.3979 149.865C41.7223 147.492 36.6233 149.528 31.692 151.497C30.6559 151.911 29.6774 152.302 28.7007 152.652C26.001 153.622 24.0885 153.756 22.6818 153.074C20.9079 152.213 20.2567 150.269 19.5029 148.018C19.1261 146.893 18.6989 145.618 18.0858 144.357C16.5627 141.226 14.1019 141.366 10.9864 141.543C9.72702 141.615 8.42459 141.689 7.15015 141.515C4.05055 141.094 1.92808 139.894 0.841741 137.95C-1.39535 133.947 1.31587 127.81 3.29555 123.329C3.50525 122.855 3.73049 122.37 3.94836 121.9C4.82074 120.022 5.72288 118.079 5.96581 116.124C6.08994 115.125 5.99975 114.172 5.90423 113.163C5.74172 111.445 5.57369 109.669 6.51209 107.699C7.44844 105.732 9.21869 104.207 11.4967 103.404C14.328 102.405 17.6263 102.584 20.3197 103.88C25.4312 106.341 27.2715 110.585 29.0515 114.689C29.7822 116.374 30.5378 118.117 31.5187 119.756C32.6369 121.625 34.3237 122.835 36.0309 122.993C38.5808 123.228 40.9104 121.101 41.8939 118.877C42.7449 116.952 43.0335 114.976 43.3125 113.065C43.6083 111.04 43.8876 109.127 44.7923 107.387C45.8162 105.417 47.5323 103.975 50.0387 102.978C53.4223 101.631 56.5631 101.699 59.6402 103.185C62.3065 104.474 64.6346 106.676 66.8861 108.805C70.7113 112.424 74.3245 115.841 79.5174 115.326C83.8131 114.9 88.0648 112.296 92.1766 109.777C94.9872 108.055 97.8935 106.274 100.832 105.171C105.114 103.563 109.505 102.398 113.751 101.271C119.712 99.688 125.343 98.1933 130.793 95.5689C134.201 93.928 137.882 93.5071 141.733 94.3182C144.942 94.9941 148.297 96.5331 151.705 98.8923C152.568 99.4895 153.559 100.383 154.708 101.418C157.438 103.879 161.178 107.248 164.099 106.929C165.197 106.809 166.138 106.178 166.978 105.001C168.532 102.819 168.42 99.7999 168.148 97.4134C167.541 92.0943 165.104 87.2349 162.746 82.5353C160.25 77.5609 157.67 72.4169 157.276 66.7378L157.275 66.7285C157.022 63.0449 158.338 60.2829 161.296 58.283C163.817 56.5794 167.118 55.7125 170.03 54.9477C170.524 54.8181 171.029 54.6926 171.517 54.5713C173.833 53.9958 176.228 53.4007 178.23 52.162C180.851 50.5403 182.152 47.4741 183.41 44.5089C185.052 40.6393 186.749 36.6381 191.359 35.5731C192.334 35.3479 193.317 35.2889 194.269 35.2318C195.342 35.1675 196.355 35.1066 197.305 34.8224C200.827 33.769 201.005 31.413 201.23 28.4301C201.399 26.1814 201.592 23.6327 203.582 21.7964C206.282 19.3067 210.164 20.5177 212.814 22.8221C213.681 23.5756 214.452 24.4198 215.198 25.2362C215.761 25.8523 216.344 26.4894 216.947 27.0632C220.292 30.2413 226.744 32.1661 233.002 31.8523C238.258 31.589 242.506 29.8716 244.964 27.017C245.638 26.2341 246.149 25.3123 246.69 24.3365C247.361 23.1271 248.055 21.8764 249.103 20.8581C250.434 19.5649 252.111 18.8591 253.732 18.1765C254.857 17.7029 255.92 17.2556 256.864 16.6301C259.125 15.1318 259.098 12.2639 259.068 9.22754C259.041 6.44475 259.014 3.56721 260.921 1.73863C262.289 0.426243 264.455 -0.133868 267.542 0.0268246C271.841 0.250532 276.525 2.37935 280.659 4.25753C282.2 4.95763 283.655 5.61889 285.042 6.16798C288.327 7.46872 291.664 9.03121 294.891 10.5422C300.402 13.1225 306.1 15.7905 311.955 17.3791C317.301 18.8295 322.034 19.1929 326.425 18.4901C328.036 18.2322 329.513 17.7575 330.942 17.2983C334.124 16.2759 337.128 15.3101 341.025 16.7903C346.048 18.6983 349.369 21.7435 350.896 25.8416C352.243 29.457 352.236 33.8243 350.875 39.193C348.866 47.1177 351.519 54.3225 355.196 62.9179L355.453 63.5182C357.237 67.6788 359.934 73.9664 360.964 80.0559C362.246 87.6323 360.532 92.8006 355.87 95.4172C354.907 95.9576 353.806 96.391 352.597 96.7055C348.564 97.7545 345.034 96.1673 341.619 94.6324C339.765 93.7988 338.013 93.0115 336.184 92.6153C333.71 92.0792 329.663 92.6257 327.173 94.4676C325.909 95.4029 325.211 96.5527 325.1 97.8848C324.994 99.1356 325.216 100.055 325.778 100.696C326.969 102.056 329.723 102.189 332.387 102.318C335.134 102.45 337.974 102.587 339.656 104.075C340.713 105.01 341.238 106.013 341.215 107.055C341.172 108.989 339.329 110.48 337.548 111.923C337.122 112.267 336.72 112.592 336.352 112.916C330.583 117.994 331.046 123.318 331.632 130.058C331.733 131.225 331.838 132.432 331.91 133.667C332.305 140.44 328.274 142.019 323.606 143.847C323.348 143.948 323.087 144.05 322.824 144.155C317.24 146.364 312.592 150.636 310.071 155.875C309.733 156.578 309.409 157.303 309.096 158.003C307.214 162.219 305.267 166.579 299.441 167.328C297.203 167.616 294.962 167.363 292.796 167.118C292.383 167.071 291.971 167.024 291.559 166.982C280.117 165.79 269.164 167.154 259.884 170.927C256.155 172.443 253.052 175.074 250.05 177.619C245.545 181.439 240.888 185.388 234.186 185.388ZM121.995 141.364C122.205 141.364 122.412 141.371 122.618 141.387C125.378 141.596 127.486 143.268 129.061 146.499C129.987 148.399 130.436 150.445 130.871 152.422C131.525 155.399 132.143 158.21 134.279 160.4C138.986 165.225 145.875 166.781 153.736 168.187L197.772 176.062C199.917 176.445 202.117 176.742 204.447 177.056C209.368 177.719 214.457 178.404 218.987 179.971C219.826 180.261 220.641 180.554 221.429 180.838C225.632 182.349 229.262 183.655 234.047 183.699C234.094 183.699 234.141 183.699 234.187 183.699C240.268 183.699 244.49 180.119 248.958 176.331C252.061 173.701 255.269 170.98 259.248 169.363C264.142 167.373 269.527 166.027 275.253 165.362C280.601 164.74 286.145 164.72 291.734 165.302C292.151 165.346 292.568 165.393 292.986 165.44C295.053 165.674 297.19 165.916 299.226 165.654C304.112 165.025 305.707 161.452 307.555 157.315C307.872 156.604 308.201 155.868 308.55 155.143C311.253 149.525 316.229 144.948 322.202 142.585C322.468 142.479 322.731 142.377 322.99 142.275C325.246 141.392 327.194 140.629 328.48 139.405C329.839 138.111 330.377 136.372 330.225 133.766C330.154 132.554 330.05 131.36 329.95 130.204C329.656 126.821 329.378 123.626 329.962 120.554C330.626 117.061 332.302 114.232 335.236 111.649C335.631 111.302 336.065 110.95 336.485 110.61C337.899 109.466 339.501 108.169 339.527 107.018C339.538 106.488 339.215 105.94 338.537 105.341C337.3 104.246 334.761 104.123 332.305 104.005C329.29 103.859 326.171 103.709 324.507 101.809C323.64 100.819 323.274 99.4516 323.417 97.7438C323.569 95.9322 324.521 94.3299 326.169 93.1103C329.151 90.9039 333.739 90.3584 336.541 90.9652C338.543 91.3989 340.459 92.2599 342.311 93.0926C345.604 94.5728 348.714 95.9708 352.172 95.0717C353.241 94.7937 354.207 94.4145 355.043 93.945C359.074 91.683 360.466 87.2322 359.299 80.3381C358.302 74.4473 355.654 68.2712 353.901 64.1844L353.635 63.5627C351.919 59.5505 350.305 55.6228 349.361 51.6097C348.269 46.9603 348.228 42.7631 349.239 38.7783C351.93 28.1606 349.13 21.6756 340.426 18.3693C337.082 17.0993 334.476 17.9367 331.458 18.9063C329.969 19.3849 328.43 19.8796 326.691 20.1578C322.059 20.8993 317.094 20.5235 311.513 19.0093C305.517 17.3823 299.751 14.6827 294.176 12.0719C290.971 10.5716 287.658 9.02019 284.42 7.73838C282.995 7.17391 281.521 6.5043 279.961 5.79522C275.768 3.89029 271.433 1.92056 267.454 1.71347C264.858 1.57856 263.103 1.98544 262.089 2.95786C260.709 4.28118 260.732 6.67592 260.757 9.21127C260.787 12.4089 260.823 16.0331 257.797 18.0381C256.72 18.751 255.534 19.2502 254.387 19.733C252.842 20.3836 251.382 20.9981 250.279 22.0696C249.41 22.914 248.806 24.0031 248.166 25.1559C247.608 26.1632 247.03 27.2048 246.243 28.1189C243.481 31.3273 238.809 33.2522 233.086 33.539C232.598 33.5634 232.109 33.5755 231.622 33.5755C225.33 33.5757 219.233 31.5645 215.785 28.2875C215.138 27.6727 214.535 27.0133 213.953 26.3756C213.206 25.5584 212.5 24.7865 211.707 24.0967C210.153 22.7454 206.934 21.002 204.727 23.0378C203.225 24.423 203.074 26.4312 202.914 28.5571C202.684 31.6026 202.424 35.0542 197.789 36.4403C196.652 36.7806 195.492 36.8502 194.37 36.9175C193.448 36.9729 192.576 37.0251 191.739 37.2185C187.968 38.0899 186.509 41.5283 184.964 45.1686C183.603 48.3768 182.196 51.6941 179.119 53.5981C176.892 54.9759 174.367 55.6033 171.925 56.2101C171.442 56.3302 170.942 56.4543 170.46 56.581C164.849 58.0543 158.49 59.7241 158.96 66.6058L158.96 66.6154C159.329 71.9588 161.722 76.7283 164.255 81.7779C166.679 86.6092 169.185 91.605 169.826 97.2221C170.132 99.9085 170.241 103.332 168.353 105.981C167.234 107.551 165.865 108.435 164.283 108.608C164.089 108.629 163.893 108.64 163.697 108.64C160.198 108.64 156.545 105.346 153.578 102.673C152.519 101.718 151.518 100.816 150.745 100.281C143.71 95.4106 137.244 94.3373 131.526 97.0905C125.931 99.7845 119.959 101.37 114.184 102.903C109.978 104.019 105.629 105.174 101.426 106.752C98.6384 107.799 95.802 109.536 93.0589 111.217C88.7849 113.835 84.3654 116.543 79.6846 117.007C79.2732 117.048 78.8703 117.067 78.4763 117.068C73.1636 117.068 69.3874 113.495 65.7267 110.033C61.3335 105.877 57.1838 101.952 50.6635 104.547C45.9916 106.406 45.5468 109.452 44.9837 113.309C44.6883 115.332 44.3827 117.425 43.4385 119.56C42.3134 122.104 39.6814 124.7 36.4395 124.7C36.2535 124.7 36.0657 124.692 35.8759 124.674C33.6344 124.467 31.4643 122.952 30.0706 120.623C29.0333 118.89 28.2554 117.096 27.5032 115.361C25.7701 111.365 24.1331 107.59 19.588 105.402C17.3247 104.312 14.4394 104.157 12.0583 104.996C10.7485 105.458 8.98758 106.428 8.03674 108.425C7.29881 109.975 7.43164 111.378 7.58545 113.003C7.68532 114.059 7.78857 115.15 7.64161 116.333C7.36598 118.55 6.40724 120.615 5.48004 122.612C5.25559 123.095 5.0435 123.552 4.8402 124.012C3.00428 128.168 0.489877 133.859 2.31584 137.126C3.14094 138.602 4.79684 139.491 7.37824 139.842C8.49168 139.993 9.71165 139.924 10.8914 139.857C14.0309 139.679 17.5897 139.477 19.6045 143.619C20.2655 144.978 20.7112 146.308 21.1043 147.482C21.7634 149.45 22.2839 151.004 23.419 151.554C24.3766 152.018 25.9178 151.858 28.1309 151.063C29.0796 150.722 30.045 150.337 31.0669 149.929C36.1007 147.919 41.8061 145.64 47.1626 148.359C49.5974 149.595 51.6863 151.371 53.7064 153.087C56.3951 155.373 58.9346 157.531 62.2087 158.511C67.5136 160.099 70.6177 157.062 74.2119 153.546L74.6391 153.129C78.7706 149.099 83.5168 146.615 89.1488 145.534C92.839 144.826 96.5621 144.847 100.162 144.866C104.973 144.893 109.517 144.917 114.017 143.359C114.238 143.283 114.457 143.206 114.674 143.13C117.276 142.224 119.746 141.364 121.995 141.364Z" fill="black"/>
</svg>
