<svg width="221" height="345" viewBox="0 0 221 345" fill="none" xmlns="http://www.w3.org/2000/svg">
<path d="M117.125 22.738C117.125 22.738 115.534 25.92 113.942 26.4498C112.351 26.9813 115.535 30.6921 115.535 30.6921L113.498 37.5858L105.458 41.2985L96.9741 48.7219L95.6467 51.3742L92.73 54.5562C92.73 54.5562 93.7904 55.3521 96.1764 55.6174C98.5642 55.8836 101.216 56.6787 101.216 56.6787L98.0345 59.5953L97.2394 60.6566H92.7309C92.7309 60.6566 92.4656 63.5724 94.0566 63.8377C95.6476 64.1021 94.3219 66.7544 90.0795 68.0792C85.838 69.4057 88.4903 72.3215 90.0795 71.7918C91.6705 71.2603 96.4444 66.7535 96.4444 66.7535L99.3602 64.6328L104.663 60.9193L108.376 61.4516L110.497 59.5953L112.881 60.1251L115.004 61.9814L119.511 62.2476L127.464 61.717L132.503 61.4525L136.215 60.6566L141.519 63.0426L144.171 68.0801C144.171 68.0801 143.904 70.5939 142.578 71.8561C141.252 73.1184 138.864 77.3607 138.864 77.3607L139.13 82.6634L136.48 87.7017L134.359 93.0053V95.6567C134.359 95.6567 131.441 98.3081 130.381 98.3081C129.32 98.3081 128.525 102.019 129.32 104.141C130.115 106.263 126.936 108.649 124.815 108.649C122.693 108.649 116.595 109.443 114.473 112.096C112.351 114.748 120.304 112.096 120.304 112.096L123.487 115.012L124.549 119.255L117.389 124.558H105.457C105.457 124.558 100.95 129.065 103.866 128.801C106.783 128.535 112.615 128.812 112.615 128.812L115.977 130.392L121.365 127.21L126.934 126.414L130.909 128.27L135.153 133.043L137.007 136.49H141.25L144.169 140.467L148.144 144.179V150.012V153.193L151.858 157.171V160.352V165.92L154.509 169.633V174.671L157.955 177.852L164.584 182.094L172.274 184.746L173.865 192.7L177.312 196.412L179.698 199.594L178.109 202.775C178.109 202.775 182.349 214.972 185.265 216.298C188.184 217.625 181.553 218.154 180.228 216.298C178.902 214.443 173.07 212.057 173.07 212.057C173.07 212.057 169.358 210.995 173.865 215.503C178.371 220.012 185.529 219.746 188.183 223.723C190.834 227.7 191.099 230.087 189.243 232.739C187.388 235.39 183.143 238.837 185.264 240.429C187.387 242.019 186.333 247.056 190.439 245.73C194.545 244.405 193.75 238.307 204.089 240.694C214.43 243.081 218.938 248.913 218.938 248.913L220 253.685V260.844L214.166 268.799L213.371 273.572L205.947 275.163L209.659 278.344L208.068 281.526L200.377 282.588C200.377 282.588 204.089 284.443 204.089 286.299C204.089 288.157 201.172 290.806 197.198 291.072C193.219 291.338 194.81 294.253 197.198 294.253C199.582 294.253 199.582 297.435 203.825 295.844C208.068 294.253 213.105 293.29 213.901 296.291C214.696 299.292 210.455 305.655 207.007 305.125C203.56 304.595 201.969 305.655 202.234 307.51C202.5 309.367 199.848 312.815 197.199 313.078C194.546 313.344 191.893 314.14 190.039 315.731C188.183 317.322 180.493 317.85 177.047 315.731C173.6 313.61 167.235 316.407 164.32 317.129C161.402 317.85 164.32 317.998 158.751 317.129C153.184 316.26 151.593 315.482 146.289 317.727C140.984 319.974 140.984 315.482 137.805 317.727C134.624 319.974 143.903 325.011 131.176 322.625C118.449 320.239 127.348 326.247 123.615 326.89C117.847 327.886 118.98 317.853 113.146 320.77C107.315 323.685 106.519 326.337 107.579 329.254C108.639 332.17 105.855 331.508 105.855 331.508L104.53 333.894L103.602 336.679L99.8899 334.556L96.9732 332.702L91.2712 331.374L86.3669 330.579L82.6552 331.773L78.9434 335.486L75.7606 336.679C75.7606 336.679 75.0995 336.943 75.0995 339.329C75.0995 341.714 72.5795 344.234 71.1207 343.97C69.6645 343.705 68.7346 340.258 66.4808 339.595C64.2252 338.931 63.0344 342.909 61.4434 342.113C59.8506 341.317 62.6368 338.004 65.4204 335.618C68.204 333.231 70.9876 332.833 71.7835 330.578C72.5786 328.326 74.4349 324.083 76.1581 324.748C77.8813 325.409 80.6666 321.432 81.5948 319.709C82.5212 317.986 84.7759 313.478 84.7759 311.622C84.7759 309.766 88.8852 308.97 90.2108 308.97C91.5365 308.97 91.9341 306.186 92.068 303.402C92.1985 300.618 96.5748 299.293 98.1641 300.221C99.7551 301.148 108.108 301.813 108.108 301.813L113.145 302.078L117.52 302.343L118.582 296.774L121.365 294.521L125.077 291.074C125.077 291.074 124.414 288.026 119.774 290.015C115.134 292.002 115.533 296.377 111.423 296.112C107.313 295.846 103.6 293.858 102.937 291.87C102.274 289.881 99.6228 287.363 97.1046 288.556C94.5845 289.75 89.6793 290.412 89.6793 290.412C89.6793 290.412 89.414 288.556 92.7282 286.965C96.0442 285.374 90.7397 284.844 88.2214 284.976C85.7032 285.108 83.0518 284.976 81.4608 286.169C79.8698 287.362 78.1449 288.555 76.2894 288.025C74.434 287.494 74.6984 285.373 75.363 284.313C76.0241 283.252 73.9034 283.915 72.0488 284.181C70.1916 284.447 68.866 281.131 69.3957 280.469C69.9281 279.807 72.9752 275.83 76.4234 274.901C79.8698 273.973 85.1726 271.057 86.4982 268.671C87.8239 266.285 92.5978 266.682 93.1275 263.5C93.6581 260.319 92.9935 258.859 93.6582 256.208C94.3192 253.557 95.6449 247.459 94.321 246.266C92.9935 245.073 91.1381 240.565 88.8843 242.554C86.6305 244.543 86.7635 248.388 83.184 247.592C79.6045 246.797 84.1122 241.361 85.0395 240.434C85.9676 239.505 89.5462 234.201 89.5462 234.201C89.5462 234.201 84.1113 231.151 83.9791 230.489C83.8469 229.826 84.5097 223.86 87.4255 223.595C90.3439 223.33 91.9323 225.981 93.9226 227.837C95.9093 229.693 99.7533 228.501 101.081 227.705C102.406 226.91 104.13 226.776 104.925 227.837C105.722 228.898 110.494 229.031 110.757 227.705C111.022 226.379 110.891 229.428 115.266 229.693C119.64 229.958 113.143 225.849 114.204 224.92C115.266 223.992 121.231 228.102 122.557 227.704C123.883 227.306 120.171 222.931 119.508 221.075C118.845 219.219 116.857 212.192 116.857 211.397C116.857 210.602 117.783 205.962 119.508 204.637C121.231 203.311 124.148 199.465 121.762 197.61C119.378 195.754 118.315 195.754 117.255 197.212C116.195 198.67 113.276 201.322 113.014 202.251C112.748 203.178 113.144 198.139 114.205 195.355C115.267 192.572 109.831 193.764 108.375 191.379C106.915 188.992 104.529 183.956 106.519 181.303C108.506 178.651 111.82 177.325 110.361 174.411C108.903 171.493 103.136 167.583 98.1641 173.747C93.1919 179.911 93.9896 174.543 91.801 172.951C89.6132 171.36 89.2166 174.543 87.8239 176.531C86.433 178.519 79.073 168.577 78.4771 171.162C77.8795 173.747 76.0911 176.531 77.0845 179.116C78.0796 181.701 68.3336 168.377 72.3141 164.996C76.2894 161.616 75.6936 158.434 77.4838 159.23C79.2722 160.025 80.4657 151.673 81.4608 149.286C82.456 146.9 84.6419 142.923 81.0633 142.923C77.4838 142.923 73.9034 141.332 73.9034 144.514C73.9034 147.695 70.1264 140.934 72.7099 139.543C75.296 138.15 77.4838 137.553 77.6821 135.565C77.8804 133.576 76.6887 129.998 78.2779 129.998C79.8707 129.998 80.2682 124.429 78.478 124.429C76.6896 124.429 76.092 125.026 76.092 127.412C76.092 129.798 78.0805 131.39 75.4944 132.583C72.91 133.776 73.5111 133.787 73.7059 136.361C73.899 138.935 70.9223 132.781 70.9223 132.781L67.3428 131.589L68.9321 126.02L64.9568 128.805L66.9435 135.765C66.9435 135.765 64.5575 139.94 64.5575 141.532C64.5575 143.122 63.9599 145.907 63.9599 148.293C63.9599 150.678 65.9502 153.065 64.3592 153.661C62.7682 154.258 57.7969 156.048 57.7969 153.065C57.7969 150.082 58.3945 144.514 59.9846 142.725C61.5756 140.934 62.3706 137.157 61.1781 135.765C59.9846 134.373 59.7872 129.6 60.7805 127.811C61.7739 126.02 62.569 124.43 62.3715 122.64C62.1714 120.85 58.7911 117.867 59.7872 115.88C60.7805 113.891 63.1648 112.897 64.5575 111.306C65.9502 109.715 65.9502 105.34 68.137 105.141C70.3247 104.942 72.1158 99.3737 70.1273 99.3737C68.137 99.3737 65.5526 106.731 60.9788 107.13C56.4059 107.527 54.4165 107.726 54.6158 105.141C54.8158 102.556 56.0067 102.158 53.023 101.561C50.0411 100.965 45.269 99.9705 48.0526 97.9819C50.8362 95.9934 55.8083 96.1917 56.6034 95.7942C57.3985 95.3967 54.4157 89.2328 56.4051 88.2376C58.3936 87.2434 62.1706 85.6524 62.7682 83.6639C63.3658 81.6745 58.3936 80.4819 60.7796 79.2884L61.3773 75.5106L57.0009 74.9138L55.8075 70.7385L58.591 66.363L57.9934 59.9999V55.2278C57.9934 55.2278 58.9886 52.6426 60.1811 55.0286C61.3755 57.4155 61.5738 59.4032 64.955 56.4204C68.3327 53.4376 64.7549 53.0401 68.1344 52.4425C68.1344 52.4425 71.7148 48.2671 67.141 45.2834C62.5672 42.3006 66.3477 40.7105 68.3327 40.1138C70.323 39.5171 72.5107 38.9212 72.3133 36.7326C72.1132 34.5458 71.1189 31.3638 73.1065 31.5621C75.0968 31.7613 71.9131 25.199 74.8968 23.6089C77.8787 22.0179 81.0615 22.6137 81.459 25.199C81.8566 27.7843 81.6574 29.3753 84.8385 27.7843C88.0196 26.1933 88.8155 25.9949 90.6057 27.3867C92.3959 28.7794 96.9706 26.5917 98.759 25.7957C100.549 25.0007 103.731 20.8597 105.321 22.7301C106.916 24.5961 113.212 18.8914 117.125 22.738Z" stroke="black" stroke-width="1.5" stroke-miterlimit="10"/>
<path d="M48.65 141.923C48.65 141.923 52.2296 136.952 53.8214 136.952C55.4124 136.952 54.0206 134.168 55.2123 131.981C56.4067 129.793 61.1797 123.43 59.3886 122.435C57.6002 121.44 52.628 127.208 52.628 129.793C52.628 132.378 52.2287 134.963 50.8378 134.367C49.4469 133.77 48.1626 129.395 47.2124 131.384C46.2657 133.371 43.4804 135.361 45.6681 137.15C47.8541 138.941 46.0657 142.52 48.65 141.923Z" stroke="black" stroke-width="1.5" stroke-miterlimit="10"/>
<path d="M47.2124 116.735L54.8166 115.408C54.8166 115.408 58.9241 115.011 59.787 112.625C60.6499 110.238 54.4605 110.636 52.3186 108.913C50.1749 107.19 54.0215 104.935 51.3684 104.406C48.717 103.876 48.4517 105.466 48.4517 106.527C48.4517 107.588 48.5857 109.841 50.0427 109.974C51.5006 110.106 50.3063 112.094 50.3063 112.094L47.2124 115.144V116.735Z" stroke="black" stroke-width="1.5" stroke-miterlimit="10"/>
<path d="M51.5008 82.265C51.5008 82.265 51.9415 82.6625 52.3187 84.9172C52.696 87.1702 55.2125 87.5677 56.9375 84.9172C58.6589 82.265 60.2499 80.1443 56.9375 78.5541C53.6215 76.9632 52.4289 80.012 51.5008 76.1672C50.5726 72.3224 52.8679 61.1863 47.2126 60.9219C41.5573 60.6574 42.9711 64.7658 44.8503 65.9593C46.7269 67.1527 43.6798 68.6106 41.1606 66.8883C38.6406 65.1642 37.0496 68.6115 38.7746 69.805C40.496 70.9976 37.4471 72.1902 38.6406 73.2514C39.8349 74.3109 42.6194 72.058 43.6798 74.9746C44.7401 77.8913 44.5163 81.8684 47.2126 81.8684C49.9098 81.8675 51.5008 82.265 51.5008 82.265Z" stroke="black" stroke-width="1.5" stroke-miterlimit="10"/>
<path d="M30.5546 59.3961L38.0521 53.4306L42.0873 52.2371L43.2817 48.2601L45.6678 43.8855L47.212 37.7207L49.8422 34.9371C49.8422 34.9371 49.1556 27.3806 47.212 28.3748C45.2702 29.3691 38.0512 35.3347 38.0512 35.3347V38.9151C38.0512 38.9151 35.9235 40.5052 35.1284 40.3069C34.3333 40.1077 30.9522 39.3117 30.5546 41.3002C30.1571 43.2896 28.5661 46.6691 30.5546 47.0675C32.5431 47.465 34.3333 48.6585 33.7357 50.6479C33.139 52.6355 30.5546 59.3961 30.5546 59.3961Z" stroke="black" stroke-width="1.5" stroke-miterlimit="10"/>
<path d="M23.1968 62.7771C23.1968 62.7771 28.9932 62.1803 29.5749 64.1689C30.1567 66.1583 27.9689 68.9418 28.1664 70.7312C28.3682 72.5205 29.9583 74.1124 27.7706 76.2992C25.5846 78.4869 26.2933 81.668 26.4361 83.6574C26.5771 85.646 19.2189 87.237 21.2074 82.2648C23.1959 77.2926 22.2008 73.3164 23.5935 72.7197C24.9861 72.1229 23.7918 66.3557 22.0025 66.3557C20.2149 66.3557 22.1805 62.8432 23.1968 62.7771Z" stroke="black" stroke-width="1.5" stroke-miterlimit="10"/>
<path d="M83.0536 200.984C83.0536 200.984 89.0139 200.61 89.5613 198.273C89.9262 196.712 89.8143 192.631 89.8143 191.836C89.8143 191.04 88.2233 186.467 85.2414 188.257C82.2559 190.047 80.07 189.649 80.07 191.836C80.07 194.023 78.4296 197.742 80.0647 198.472C81.7491 199.224 83.0536 200.984 83.0536 200.984Z" stroke="black" stroke-width="1.5" stroke-miterlimit="10"/>
<path d="M35.5266 109.508C35.5266 109.508 34.1357 105.93 33.5381 106.327C32.9405 106.724 29.7611 109.338 31.7479 110.518C33.7364 111.696 35.5266 109.508 35.5266 109.508Z" stroke="black" stroke-width="1.5" stroke-miterlimit="10"/>
<path d="M41.8895 106.297L43.8798 100.76H40.6978L38.0518 103.527L41.8895 106.297Z" stroke="black" stroke-width="1.5" stroke-miterlimit="10"/>
<path d="M47.2127 92.6062C47.2127 92.6062 49.9293 89.6904 48.4609 87.5688C46.9942 85.4472 46.8619 86.3489 45.6685 86.7605C44.475 87.1713 45.4032 89.4251 46.3313 89.9548C47.2595 90.4855 47.2127 92.6062 47.2127 92.6062Z" stroke="black" stroke-width="1.5" stroke-miterlimit="10"/>
<path d="M67.6753 149.611C67.6753 149.611 72.4474 150.805 72.8449 148.684C73.2425 146.563 69.5307 144.309 70.2588 142.984C70.9886 141.657 69.2654 139.669 67.6744 140.199C66.0843 140.73 65.1562 147.358 67.6753 149.611Z" stroke="black" stroke-width="1.5" stroke-miterlimit="10"/>
<path d="M109.965 15.4495C109.965 15.4495 111.29 17.3058 113.015 17.1727C114.738 17.0405 113.146 14.5213 113.015 12.9312C112.881 11.3402 112.881 10.8096 109.965 10.8096C107.05 10.8096 107.712 14.6526 109.965 15.4495Z" stroke="black" stroke-width="1.5" stroke-miterlimit="10"/>
<path d="M121.499 12.0021L125.211 9.74915L122.294 8.29125H118.715V3.51915L113.81 1L110.362 3.12074C110.362 3.12074 110.76 4.31332 111.556 5.50679C112.351 6.70026 114.473 10.1476 116.86 10.1476C119.246 10.1476 119.644 10.4129 119.777 12.0021C119.908 13.594 121.499 12.0021 121.499 12.0021Z" stroke="black" stroke-width="1.5" stroke-miterlimit="10"/>
<path d="M117.786 18.1009C117.786 18.1009 122.029 17.9687 121.632 16.3777C121.234 14.7859 120.571 13.0697 118.45 13.9952C116.33 14.9189 116.33 16.9075 117.786 18.1009Z" stroke="black" stroke-width="1.5" stroke-miterlimit="10"/>
<path d="M44.4617 207.35C44.4617 207.35 38.3622 208.941 37.5671 209.206C36.772 209.471 34.1207 204.168 33.0603 202.842C31.9999 201.517 29.3468 197.008 26.9625 197.275C24.5765 197.54 24.5765 199.661 22.9855 202.048C21.3927 204.435 21.1283 206.025 17.1512 204.963C13.1742 203.903 12.6445 202.841 9.19804 203.239C5.75161 203.638 4.42593 196.479 1.50749 194.622C-1.40918 192.769 9.19804 191.177 9.19804 191.177L8.40298 185.343L15.0314 182.956L16.0918 174.472L22.7316 170.229L24.8427 172.349L28.5526 167.313L36.2432 165.19C36.2432 165.19 42.608 164.66 44.4635 166.252C46.318 167.842 47.6428 171.82 50.2977 173.94C52.9473 176.062 56.9244 179.774 54.8027 181.365C52.682 182.955 48.1734 186.326 51.091 187.16C54.0077 187.994 57.9838 187.463 57.7194 188.524C57.455 189.585 58.8053 195.153 57.7335 196.744C56.659 198.334 52.6829 199.926 52.6829 202.841C52.6829 205.759 49.2365 210 46.8504 210.531C44.4617 211.062 44.4617 207.35 44.4617 207.35Z" stroke="black" stroke-width="1.5" stroke-miterlimit="10"/>
</svg>
