<svg width="221" height="345" viewBox="0 0 221 345" fill="none" xmlns="http://www.w3.org/2000/svg">
<path d="M117.166 26.3323C117.166 26.3323 115.638 29.4392 114.109 29.9565C112.58 30.4754 115.639 34.0986 115.639 34.0986L113.682 40.8296L105.958 44.4546L97.8072 51.7028L96.532 54.2925L93.7299 57.3994C93.7299 57.3994 94.7486 58.1765 97.0409 58.4355C99.3349 58.6954 101.882 59.4718 101.882 59.4718L98.826 62.3195L98.0621 63.3558H93.7307C93.7307 63.3558 93.4759 66.2027 95.0044 66.4618C96.5328 66.7199 95.2592 69.3096 91.1835 70.6032C87.1086 71.8983 89.6567 74.7453 91.1835 74.2281C92.712 73.7092 97.2983 69.3088 97.2983 69.3088L100.1 67.2381L105.194 63.6123L108.761 64.132L110.799 62.3195L113.089 62.8368L115.129 64.6493L119.459 64.9092L127.099 64.3911L131.94 64.1329L135.507 63.3558L140.602 65.6855L143.15 70.604C143.15 70.604 142.893 73.0585 141.62 74.2909C140.346 75.5234 138.051 79.6656 138.051 79.6656L138.307 84.8431L135.761 89.7625L133.723 94.9409V97.5297C133.723 97.5297 130.92 100.118 129.902 100.118C128.882 100.118 128.119 103.742 128.882 105.814C129.646 107.886 126.592 110.215 124.554 110.215C122.516 110.215 116.657 110.991 114.619 113.581C112.58 116.17 120.221 113.581 120.221 113.581L123.279 116.428L124.299 120.571L117.42 125.749H105.957C105.957 125.749 101.627 130.149 104.428 129.892C107.231 129.632 112.834 129.902 112.834 129.902L116.064 131.445L121.24 128.338L126.59 127.561L130.409 129.373L134.486 134.033L136.267 137.399H140.344L143.148 141.282L146.967 144.907V150.602V153.708L150.535 157.592V160.698V166.134L153.082 169.76V174.679L156.392 177.785L162.761 181.927L170.149 184.516L171.677 192.282L174.989 195.907L177.281 199.013L175.755 202.119C175.755 202.119 179.828 214.028 182.63 215.323C185.434 216.619 179.063 217.135 177.79 215.323C176.517 213.512 170.914 211.182 170.914 211.182C170.914 211.182 167.348 210.145 171.677 214.547C176.006 218.949 182.883 218.69 185.433 222.573C187.98 226.456 188.234 228.787 186.451 231.376C184.669 233.964 180.591 237.33 182.629 238.884C184.668 240.437 183.656 245.355 187.6 244.06C191.545 242.767 190.781 236.813 200.714 239.143C210.649 241.474 214.98 247.168 214.98 247.168L216 251.828V258.818L210.395 266.585L209.631 271.245L202.499 272.799L206.065 275.904L204.537 279.011L197.148 280.048C197.148 280.048 200.714 281.86 200.714 283.672C200.714 285.486 197.912 288.072 194.094 288.332C190.271 288.592 191.8 291.438 194.094 291.438C196.384 291.438 196.384 294.545 200.46 292.991C204.537 291.438 209.376 290.498 210.141 293.428C210.904 296.358 206.83 302.571 203.517 302.053C200.206 301.536 198.677 302.571 198.932 304.382C199.187 306.195 196.64 309.562 194.095 309.819C191.546 310.078 188.997 310.855 187.216 312.409C185.433 313.962 178.045 314.478 174.734 312.409C171.423 310.338 165.308 313.069 162.507 313.774C159.704 314.478 162.507 314.622 157.157 313.774C151.809 312.925 150.28 312.166 145.185 314.358C140.088 316.552 140.088 312.166 137.034 314.358C133.978 316.552 142.893 321.47 130.665 319.14C118.438 316.811 126.988 322.677 123.402 323.305C117.86 324.277 118.949 314.481 113.344 317.329C107.742 320.175 106.977 322.765 107.996 325.613C109.014 328.46 106.339 327.814 106.339 327.814L105.066 330.143L104.175 332.862L100.608 330.79L97.8064 328.979L92.3284 327.683L87.6167 326.906L84.0509 328.072L80.4849 331.698L77.4271 332.862C77.4271 332.862 76.792 333.12 76.792 335.45C76.792 337.779 74.371 340.239 72.9695 339.981C71.5705 339.723 70.6771 336.357 68.5119 335.71C66.3449 335.061 65.2009 338.945 63.6724 338.168C62.1422 337.391 64.8189 334.156 67.4931 331.827C70.1674 329.496 72.8416 329.107 73.6063 326.905C74.3701 324.707 76.1535 320.564 77.809 321.213C79.4645 321.858 82.1404 317.975 83.0321 316.293C83.9221 314.611 86.0882 310.209 86.0882 308.397C86.0882 306.585 90.0361 305.808 91.3096 305.808C92.5833 305.808 92.9652 303.089 93.0939 300.371C93.2192 297.653 97.4236 296.359 98.9505 297.265C100.479 298.17 108.504 298.819 108.504 298.819L113.343 299.078L117.546 299.337L118.566 293.899L121.24 291.7L124.806 288.334C124.806 288.334 124.169 285.358 119.711 287.3C115.254 289.24 115.637 293.512 111.689 293.253C107.74 292.993 104.173 291.052 103.536 289.111C102.899 287.169 100.352 284.711 97.9326 285.875C95.5115 287.041 90.799 287.688 90.799 287.688C90.799 287.688 90.5441 285.875 93.7281 284.322C96.9139 282.769 91.8178 282.251 89.3984 282.38C86.9791 282.509 84.4319 282.38 82.9034 283.545C81.3749 284.71 79.7177 285.874 77.9351 285.357C76.1526 284.838 76.4066 282.768 77.0451 281.733C77.6803 280.697 75.6429 281.344 73.8611 281.604C72.0769 281.863 70.8034 278.626 71.3123 277.979C71.8237 277.333 74.7511 273.45 78.0639 272.543C81.3749 271.637 86.4694 268.789 87.7429 266.46C89.0165 264.13 93.6029 264.518 94.1118 261.411C94.6215 258.305 93.983 256.879 94.6216 254.291C95.2566 251.703 96.5303 245.749 95.2584 244.584C93.983 243.419 92.2005 239.017 90.0352 240.959C87.87 242.901 87.9978 246.656 84.5589 245.878C81.12 245.102 85.4506 239.795 86.3415 238.889C87.2331 237.982 90.6711 232.804 90.6711 232.804C90.6711 232.804 85.4498 229.826 85.3228 229.179C85.1957 228.532 85.8325 222.707 88.6338 222.448C91.4375 222.189 92.9635 224.778 94.8756 226.59C96.7843 228.402 100.477 227.238 101.753 226.461C103.026 225.685 104.682 225.554 105.446 226.59C106.211 227.626 110.796 227.756 111.049 226.461C111.303 225.166 111.177 228.143 115.381 228.402C119.583 228.661 113.341 224.649 114.36 223.742C115.381 222.836 121.111 226.848 122.385 226.46C123.659 226.071 120.093 221.8 119.456 219.987C118.819 218.175 116.909 211.314 116.909 210.538C116.909 209.762 117.799 205.231 119.456 203.937C121.111 202.643 123.914 198.887 121.621 197.076C119.331 195.264 118.31 195.264 117.291 196.688C116.273 198.111 113.469 200.701 113.217 201.608C112.961 202.513 113.342 197.593 114.361 194.874C115.381 192.157 110.159 193.321 108.76 190.992C107.358 188.662 105.065 183.745 106.977 181.154C108.886 178.565 112.07 177.27 110.668 174.425C109.268 171.576 103.727 167.758 98.9505 173.777C94.1736 179.795 94.94 174.554 92.8374 172.999C90.7355 171.446 90.3545 174.554 89.0165 176.495C87.6802 178.436 80.6094 168.729 80.0369 171.253C79.4628 173.777 77.7446 176.495 78.699 179.019C79.655 181.543 70.2919 168.533 74.116 165.232C77.9351 161.932 77.3628 158.825 79.0826 159.602C80.8008 160.378 81.9474 152.224 82.9034 149.893C83.8595 147.563 85.9595 143.68 82.5215 143.68C79.0826 143.68 75.6429 142.127 75.6429 145.234C75.6429 148.34 72.0143 141.738 74.4963 140.38C76.9808 139.02 79.0826 138.437 79.2731 136.496C79.4636 134.554 78.3188 131.06 79.8455 131.06C81.3758 131.06 81.7576 125.623 80.0378 125.623C78.3196 125.623 77.7455 126.206 77.7455 128.535C77.7455 130.865 79.6559 132.419 77.1714 133.584C74.6885 134.749 75.266 134.76 75.4531 137.273C75.6387 139.786 72.7789 133.778 72.7789 133.778L69.34 132.614L70.8669 127.176L67.0478 129.895L68.9564 136.691C68.9564 136.691 66.6641 140.768 66.6641 142.322C66.6641 143.875 66.09 146.594 66.09 148.923C66.09 151.252 68.0021 153.583 66.4736 154.165C64.9451 154.748 60.1691 156.495 60.1691 153.583C60.1691 150.67 60.7433 145.234 62.2709 143.487C63.7994 141.738 64.5632 138.05 63.4175 136.691C62.2709 135.332 62.0812 130.672 63.0355 128.925C63.9899 127.176 64.7538 125.624 64.564 123.876C64.3718 122.128 61.1243 119.216 62.0812 117.276C63.0355 115.334 65.3262 114.363 66.6641 112.81C68.0021 111.256 68.0021 106.984 70.103 106.79C72.2048 106.596 73.9255 101.159 72.0151 101.159C70.103 101.159 67.6201 108.343 63.226 108.732C58.8328 109.12 56.9215 109.314 57.113 106.79C57.3051 104.266 58.4493 103.878 55.5828 103.295C52.718 102.713 48.1334 101.742 50.8076 99.8C53.4819 97.8584 58.2587 98.052 59.0225 97.6639C59.7864 97.2758 56.9208 91.2574 58.832 90.2857C60.7424 89.315 64.371 87.7615 64.9451 85.82C65.5193 83.8775 60.7424 82.7131 63.0347 81.5478L63.6089 77.8591L59.4044 77.2764L58.2579 73.1997L60.932 68.9275L60.3579 62.7146V58.0551C60.3579 58.0551 61.314 55.531 62.4597 57.8606C63.6071 60.1912 63.7977 62.132 67.046 59.2196C70.291 56.3072 66.8538 55.9191 70.1005 55.3356C70.1005 55.3356 73.5403 51.2587 69.1461 48.3455C64.752 45.4331 68.384 43.8805 70.291 43.2979C72.2031 42.7153 74.3049 42.1335 74.1152 39.9965C73.923 37.8613 72.9678 34.7545 74.8773 34.9481C76.7894 35.1426 73.7308 28.7352 76.5972 27.1826C79.462 25.6292 82.5198 26.2109 82.9017 28.7352C83.2836 31.2595 83.0923 32.8129 86.1484 31.2595C89.2045 29.706 89.9691 29.5123 91.689 30.8712C93.4089 32.2311 97.8039 30.095 99.522 29.3178C101.242 28.5416 104.299 24.4983 105.826 26.3246C107.359 28.1465 113.407 22.5765 117.166 26.3323Z" stroke="black" stroke-width="1.5" stroke-miterlimit="10"/>
<path d="M50.8166 142.933C50.8166 142.933 54.4114 137.878 56.0099 137.878C57.6077 137.878 56.21 135.047 57.4067 132.823C58.6062 130.598 63.3995 124.128 61.6008 123.116C59.8048 122.104 54.8115 127.969 54.8115 130.598C54.8115 133.227 54.4105 135.855 53.0137 135.249C51.6168 134.642 50.3271 130.193 49.3729 132.216C48.4221 134.236 45.625 136.26 47.822 138.079C50.0173 139.9 48.2213 143.54 50.8166 142.933Z" stroke="black" stroke-width="1.5" stroke-miterlimit="10"/>
<path d="M50 118L57.2097 116.719C57.2097 116.719 61.1042 116.336 61.9223 114.034C62.7405 111.73 56.8721 112.114 54.8413 110.451C52.8088 108.788 56.4559 106.612 53.9404 106.102C51.4266 105.59 51.175 107.125 51.175 108.149C51.175 109.172 51.3021 111.347 52.6835 111.475C54.0658 111.603 52.9334 113.521 52.9334 113.521L50 116.465V118Z" stroke="black" stroke-width="1.5" stroke-miterlimit="10"/>
<path d="M53.9201 84.6536C53.9201 84.6536 54.3435 85.0381 54.7059 87.2187C55.0684 89.3977 57.486 89.7821 59.1432 87.2187C60.797 84.6536 62.3255 82.6026 59.1432 81.0647C55.9575 79.526 54.8118 82.4747 53.9201 78.7562C53.0284 75.0377 55.2335 64.2675 49.8004 64.0118C44.3673 63.756 45.7256 67.7294 47.5309 68.8837C49.3338 70.0379 46.4064 71.4479 43.9862 69.7822C41.5652 68.1147 40.0367 71.4488 41.694 72.603C43.3477 73.7565 40.4186 74.9099 41.5652 75.9362C42.7126 76.9609 45.3877 74.782 46.4064 77.6028C47.4251 80.4236 47.2101 84.2701 49.8004 84.2701C52.3917 84.2692 53.9201 84.6536 53.9201 84.6536Z" stroke="black" stroke-width="1.5" stroke-miterlimit="10"/>
<path d="M33.9177 62L40.9467 56.2476L44.7297 55.0968L45.8495 51.2618L48.0865 47.0435L49.5342 41.099L52 38.4148C52 38.4148 51.3563 31.1283 49.5342 32.0869C47.7137 33.0457 40.9459 38.7982 40.9459 38.7982V42.2507C40.9459 42.2507 38.9511 43.784 38.2057 43.5928C37.4603 43.4007 34.2905 42.6331 33.9177 44.5506C33.5451 46.4689 32.0535 49.7277 33.9177 50.1118C35.782 50.4951 37.4603 51.646 36.9 53.5643C36.3406 55.4809 33.9177 62 33.9177 62Z" stroke="black" stroke-width="1.5" stroke-miterlimit="10"/>
<path d="M26.3816 65.0844C26.3816 65.0844 32.3047 64.4844 32.8991 66.4836C33.4936 68.4835 31.258 71.2818 31.4598 73.0806C31.666 74.8794 33.2909 76.4798 31.0554 78.6781C28.8216 80.8774 29.5458 84.0754 29.6917 86.0753C29.8358 88.0745 22.3167 89.6739 24.3487 84.6754C26.3806 79.6768 25.3638 75.6795 26.7869 75.0797C28.21 74.4797 26.9896 68.682 25.1612 68.682C23.3345 68.682 25.343 65.1509 26.3816 65.0844Z" stroke="black" stroke-width="1.5" stroke-miterlimit="10"/>
<path d="M83.8944 200C83.8944 200 90.1438 199.63 90.7178 197.318C91.1004 195.773 90.983 191.735 90.983 190.949C90.983 190.161 89.3149 185.637 86.1883 187.408C83.058 189.179 80.7661 188.785 80.7661 190.949C80.7661 193.113 79.0461 196.792 80.7605 197.515C82.5266 198.259 83.8944 200 83.8944 200Z" stroke="black" stroke-width="1.5" stroke-miterlimit="10"/>
<path d="M38 110.811C38 110.811 36.7424 107.679 36.2021 108.027C35.6618 108.374 32.7872 110.662 34.5835 111.695C36.3814 112.726 38 110.811 38 110.811Z" stroke="black" stroke-width="1.5" stroke-miterlimit="10"/>
<path d="M44.2925 108L46 102H43.2701L41 104.998L44.2925 108Z" stroke="black" stroke-width="1.5" stroke-miterlimit="10"/>
<path d="M49.2244 94C49.2244 94 52.0894 91.2629 50.5408 89.2714C48.994 87.2799 48.8544 88.1263 47.5958 88.5126C46.3371 88.8983 47.316 91.0139 48.2949 91.5111C49.2738 92.0093 49.2244 94 49.2244 94Z" stroke="black" stroke-width="1.5" stroke-miterlimit="10"/>
<path d="M69.3851 149.694C69.3851 149.694 73.6207 150.786 73.9735 148.845C74.3264 146.904 71.0319 144.842 71.6781 143.629C72.3259 142.415 70.7964 140.595 69.3843 141.08C67.973 141.566 67.1492 147.632 69.3851 149.694Z" stroke="black" stroke-width="1.5" stroke-miterlimit="10"/>
<path d="M110.016 19.3704C110.016 19.3704 111.389 21.1189 113.176 20.9936C114.961 20.869 113.311 18.4961 113.176 16.9984C113.037 15.4998 113.037 15 110.016 15C106.996 15 107.682 18.6198 110.016 19.3704Z" stroke="black" stroke-width="1.5" stroke-miterlimit="10"/>
<path d="M121.25 15.3354L125 13.2189L122.053 11.8494H118.438V7.36649L113.483 5L110 6.99222C110 6.99222 110.402 8.11253 111.206 9.23368C112.009 10.3548 114.153 13.5932 116.564 13.5932C118.974 13.5932 119.376 13.8425 119.511 15.3354C119.643 16.8308 121.25 15.3354 121.25 15.3354Z" stroke="black" stroke-width="1.5" stroke-miterlimit="10"/>
<path d="M117.834 22C117.834 22 121.303 21.8486 120.979 20.0267C120.653 18.2039 120.111 16.2386 118.377 17.2984C116.644 18.3562 116.644 20.6334 117.834 22Z" stroke="black" stroke-width="1.5" stroke-miterlimit="10"/>
<path d="M46.8242 206.801C46.8242 206.801 40.9545 208.375 40.1894 208.637C39.4242 208.9 36.8728 203.652 35.8524 202.34C34.8319 201.029 32.2788 196.568 29.9843 196.832C27.6882 197.094 27.6882 199.193 26.1572 201.555C24.6244 203.917 24.3699 205.49 20.5427 204.439C16.7155 203.39 16.2058 202.339 12.8892 202.733C9.57259 203.128 8.29685 196.044 5.48837 194.207C2.68159 192.373 12.8892 190.798 12.8892 190.798L12.1241 185.025L18.5027 182.663L19.5232 174.268L25.9128 170.07L27.9444 172.168L31.5145 167.184L38.9154 165.084C38.9154 165.084 45.0403 164.559 46.8259 166.135C48.6106 167.708 49.8855 171.644 52.4403 173.742C54.9901 175.842 58.8174 179.515 56.7756 181.089C54.7348 182.662 50.3961 185.998 53.2037 186.823C56.0105 187.648 59.8368 187.123 59.5824 188.173C59.328 189.223 60.6274 194.732 59.596 196.306C58.562 197.88 54.7357 199.455 54.7357 202.339C54.7357 205.227 51.4191 209.423 49.1229 209.949C46.8242 210.474 46.8242 206.801 46.8242 206.801Z" stroke="black" stroke-width="1.5" stroke-miterlimit="10"/>
</svg>
