<svg width="402" height="241" viewBox="0 0 402 241" fill="none" xmlns="http://www.w3.org/2000/svg">
<path d="M131.886 220.085C131.719 220.258 131.552 220.43 131.385 220.603C129.791 223.124 131.349 226.033 130.413 228.67C130.121 229.499 131.027 230.178 131.67 230.748C132.885 231.825 134.065 232.928 134.847 234.392C135.045 234.765 135.583 234.978 135.101 235.526C134.706 235.974 134.347 236.102 133.737 235.92C132.157 235.447 130.559 235.024 128.947 234.679C127.273 234.321 125.511 233.943 123.894 234.647C122.298 235.343 120.747 234.218 119.012 235.031C120.054 233.311 119.656 231.645 119.272 230.239C118.175 226.215 116.447 222.478 113.068 219.725C112.041 218.889 111.718 217.385 110.593 216.569C108.4 214.976 106.191 213.808 103.391 215.394C102.808 215.723 101.726 215.229 100.841 215.25C99.6365 215.278 98.4428 215.111 97.5557 216.196C97.4565 216.317 97.144 216.433 97.0576 216.371C95.3713 215.174 93.7471 216.553 92.1549 216.445C90.1275 216.307 88.8428 217.345 87.6194 218.48C86.5527 219.471 85.462 219.329 84.6279 218.7C83.4856 217.838 82.8166 218.501 82.4967 219.235C81.7621 220.918 80.6126 220.601 79.4723 220.038C78.5894 219.604 77.5859 219.498 76.8289 218.558C76.3793 217.998 75.2476 217.7 74.0288 217.866C72.4291 218.082 70.8115 216.979 69.4789 215.978C69.0022 215.619 68.7423 215.59 68.2199 215.554C66.268 215.419 64.3177 215.237 63.0112 213.385C62.5879 212.785 61.8744 212.257 61.1814 212.004C58.0132 210.844 55.4807 207.89 51.6468 208.593C51.0117 208.709 50.5834 208.32 50.1225 207.905C48.8706 206.777 47.5506 205.832 45.9546 207.438C45.7416 207.652 45.2599 207.904 45.0851 207.608C44.4847 206.592 43.2288 206.456 42.5522 205.673C40.7215 203.554 38.7414 201.81 35.9564 200.964C34.7763 200.605 34.1191 199.204 33.2692 198.228C32.4672 197.305 31.618 196.164 30.0493 197.327C30.379 194.716 30.3601 192.226 29.0296 189.918C28.849 189.604 28.8195 189.146 28.8618 188.771C29.1669 186.065 28.0549 183.529 27.8319 180.876C27.7541 179.951 27.2007 177.813 25.0986 178.092C24.6807 178.147 24.5568 177.876 24.3396 177.631C24.0863 177.343 23.77 176.96 23.4411 176.916C19.7823 176.424 19.4939 172.897 17.7693 170.672C17.2665 170.023 17.0707 169.159 16.357 168.654C15.4158 167.987 15.1829 167.599 16.3553 166.659C17.2918 165.907 17.531 164.295 17.1653 163.021C16.7449 161.556 16.3596 159.748 15.3083 158.873C13.5541 157.412 14.1536 156.699 14.9042 154.964C15.398 153.823 15.0704 151.744 15.1579 150.083C15.3179 147.044 13.4575 145.106 11.4485 143.22C8.34046 140.303 6.97254 133.259 8.8662 129.594C9.25545 128.841 9.99409 128.399 9.73536 127.294C9.59706 126.703 10.1706 126.081 10.9832 126.905C11.7612 127.693 12.3018 128.702 13.032 129.44C15.2219 131.653 17.5889 133.681 20.2063 135.441C21.8035 136.514 22.9715 138.132 25.0188 138.664C27.4598 139.298 29.7034 139.715 32.3133 138.932C36.6907 137.62 39.8324 134.628 43.1907 131.907C44.6599 130.717 45.1139 128.692 46.0578 127.08C47.6711 124.325 48.7417 121.25 50.0393 118.31C52.0231 117.252 53.6084 115.863 54.1881 113.557C54.4306 112.591 54.6061 111.57 56.0677 112.669C56.9311 113.318 58.1118 113.244 59.2166 112.598C60.4387 111.882 61.7093 111.307 63.2109 111.092C64.1607 110.955 65.7998 110.954 65.9355 109.201C65.9532 108.972 66.4681 108.544 66.6028 108.597C69.0012 109.526 71.0924 107.048 73.5347 108.046C74.8655 108.589 75.7585 110.067 77.462 109.803C80.1977 109.381 82.6214 111.432 85.3946 110.856C85.6193 110.809 86.0537 110.907 86.1097 111.049C86.706 112.558 88.2453 112.882 89.425 113.29C93.0786 114.553 96.0004 117.193 99.6319 118.449C100.408 118.718 101.252 118.972 101.913 118.574C103.484 117.63 105.515 117.537 106.71 115.898C107.695 114.548 109.604 115.003 110.783 113.782C113.002 111.484 114.499 108.778 115.567 105.858C117.644 100.183 119.021 94.3157 119.743 88.3091C119.882 87.143 119.736 85.9673 119.58 84.7856C119.303 82.665 118.85 80.5679 118.91 78.3895C118.938 77.3491 119.023 75.9772 117.438 75.5545C116.807 75.3864 117.016 74.6618 117.049 74.1699C117.22 71.6052 116.878 69.0878 116.367 66.59C116.171 65.6291 116.48 65.2335 117.35 65.6919C119.282 66.711 121.131 67.7758 123.362 68.2159C124.481 68.4366 125.447 69.6913 126.371 70.5921C128.403 72.5731 130.909 73.2171 133.577 72.9536C134.808 72.8322 135.831 73.1183 136.655 73.728C137.507 74.3582 138.388 74.6201 139.345 74.7543C141.121 75.0038 142.904 75.2661 144.693 75.3458C146.571 75.4297 147.92 74.2633 148.424 72.1744C149.149 73.5647 150.742 72.9634 151.216 73.2786C152.738 74.2937 154.465 74.3943 156.023 75.0579C157.925 75.8677 159.835 76.8454 161.825 74.8569C162.934 73.7465 164.494 74.7767 165.55 75.2888C166.98 75.9818 168.704 75.9359 169.935 77.1442C170.313 77.5157 170.971 77.3595 171.496 76.8351C171.896 76.4346 172.409 75.6381 173.117 76.0673C175.155 77.3017 177.559 76.2886 179.587 77.2046C180.646 77.683 181.603 77.7126 182.722 77.65C183.763 77.5918 184.959 77.5367 185.859 78.4374C186.973 79.5509 188.416 78.9678 189.707 79.0481C192.119 79.1979 194.616 78.8465 196.942 79.3422C200.217 80.0403 203.42 78.4296 206.482 79.1907C209.397 79.9152 212.087 79.06 214.483 78.3075C219.666 76.6795 225.198 76.9762 230.294 74.8719C231.748 74.2719 233.947 74.3625 235.797 74.5955C237.039 74.7521 238.015 74.399 239.094 73.8104C240.875 72.8383 242.963 72.5454 244.708 71.3989C245.698 70.748 246.803 70.2645 247.219 69.052C247.588 67.9828 248.631 68.2268 249.334 67.8233C250.701 67.0398 252.067 66.2401 253.273 65.1718C254.211 64.3397 255.237 63.4317 256.737 63.9024C257.273 64.0702 257.766 63.7005 258.189 63.4137C259.033 62.843 259.706 62.8078 260.791 63.1487C262.607 63.7187 264.598 63.0572 266.558 63.2449C270.378 63.6104 274.121 62.9697 277.278 60.5922C278.368 59.7719 279.327 60.7532 280.423 60.2366C283.105 58.9731 285.934 58.0143 288.719 56.9759C290.127 56.451 291.965 57.3375 293.059 55.9412C293.965 54.7849 295.223 54.3825 296.433 54.1351C297.649 53.8864 298.676 53.4361 299.426 52.5774C300.272 51.6082 301.324 51.4086 302.449 51.3024C303.127 51.2381 303.695 51.1357 304.152 50.5302C305.48 48.7732 307.927 48.5991 309.369 46.7469C309.907 46.0558 311.988 45.9349 313.353 45.8285C316.542 45.5804 317.991 43.433 319.546 41.0929C320.625 39.4694 321.713 37.7235 323.474 36.6864C324.663 35.9867 325.2 34.779 325.499 33.6668C325.896 32.1924 326.678 32.2076 327.512 32.8423C328.587 33.6598 329.493 33.5145 330.716 33.2558C332.147 32.9529 333.691 33.5604 335.21 33.2898C335.587 33.2223 335.925 33.141 336.237 32.9408C336.338 32.8347 336.438 32.7287 336.539 32.6225C337.214 30.7333 338.795 30.397 340.515 30.2988C342.226 28.8479 344.722 30.3636 346.437 28.6382C347.848 27.2187 350.137 26.7338 350.833 24.5149C350.888 24.3395 350.934 23.9579 351.302 24.0617C353.569 24.7006 354.185 22.8593 354.439 21.4757C354.714 19.9751 355.977 19.4223 356.632 19.5199C357.884 19.7057 358.316 19.2216 358.959 18.4092C359.802 17.3441 361.249 17.1045 362.375 17.3311C364.606 17.7804 365.867 16.5038 367.169 15.2118C368.788 13.6059 370.403 12.2856 372.751 13.9016C373.421 14.3626 373.738 13.5305 374.284 13.4109C376.08 13.0175 377.837 12.4072 379.571 11.7763C380.24 11.533 380.869 10.8891 380.894 10.2014C380.965 8.2097 381.537 8.98286 382.197 9.89249C382.492 10.2986 382.848 10.2575 383.233 10.0854C384.509 9.51485 385.793 8.94576 386.764 7.8932C387.903 6.65861 389.092 5.61466 390.972 5.89539C391.662 5.99874 392.402 6.02458 392.957 5.3508C393.185 5.07388 393.643 4.7905 393.951 5.22162C394.073 5.39272 393.953 5.9416 393.76 6.09796C392.438 7.18083 392.961 9.01896 392.027 10.2686C391.899 10.4405 391.844 11.2536 391.896 11.2889C393.312 12.2477 392.308 13.2393 391.784 13.955C391.082 14.9123 390.198 15.6162 388.783 15.8232C386.388 16.1736 383.923 16.5214 381.843 18.0565C380.21 19.2614 378.686 20.6712 376.307 20.3848C374.983 20.2256 374.045 21.5126 372.935 22.1082C371.063 23.1134 369.532 24.5384 367.742 25.6069C367.63 25.6736 367.411 25.7364 367.413 25.7931C367.527 28.2497 364.691 29.5664 364.942 31.9601C365.057 33.064 364.505 32.9856 363.904 33.2985C362.542 34.0083 361.051 34.6025 360.372 36.1772C360.108 36.7911 359.524 36.9525 358.947 37.0708C356.377 37.5972 354.443 39.0638 352.875 41.1042C352.646 41.4036 352.322 41.7724 351.993 41.8315C349.813 42.2213 349.346 44.297 348.208 45.6775C347.617 46.3948 347.236 47.0906 346.16 47.2162C344.541 47.4053 343.647 49.0209 341.993 49.4107C338.76 50.1727 336.21 52.4829 333.176 53.7267C331.435 54.4398 329.884 55.5009 328 56.006C326.584 56.3856 325.555 57.8403 324.212 58.6615C323.287 59.2271 322.432 59.954 321.473 60.519C319.583 61.633 317.993 62.8643 316.783 64.9465C315.33 67.4499 312.518 68.9816 310.699 71.3586C309.289 73.2004 308.955 75.2188 308.989 77.4334C309.009 78.7155 308.204 79.9983 307.168 80.2613C304.261 80.9991 301.254 81.3422 298.286 81.8343C298.168 81.8538 297.971 81.8492 297.921 81.7783C297.12 80.6312 296.031 80.3406 294.715 80.6356C291.796 81.2899 288.977 82.123 287.289 84.9039C285.655 87.5945 284.084 90.324 282.398 92.9805C282.127 93.4069 282.132 94.1639 281.328 94.2412C280.945 94.278 280.561 94.6235 280.613 95.0603C280.865 97.1518 280.148 99.1446 279.968 101.192C279.656 104.739 279.788 108.116 281.446 111.328C281.767 111.949 281.717 112.637 281.541 113.251C281.385 113.796 281.497 114.271 281.88 114.46C284.141 115.571 284.37 118.188 285.927 119.824C286.702 120.639 286.97 121.848 288.409 122.1C288.96 122.195 289.669 123.209 289.753 123.874C290.261 127.923 293.05 130.514 295.785 132.92C299.065 135.805 302.341 138.643 304.829 142.252C305.619 143.399 306.132 144.752 306.672 146.052C306.958 146.738 307.324 147.337 307.869 147.799C308.788 148.577 309.91 149.244 308.441 150.525C307.999 150.91 308.493 151.198 308.659 151.521C309.208 152.591 309.225 153.692 308.334 154.532C307.347 155.462 306.503 154.723 305.851 153.964C305.343 153.373 304.642 153.547 304.077 153.28C302.91 152.729 301.438 152.75 300.543 151.752C298.871 149.891 296.647 151.31 294.831 150.627C291.847 149.504 289.161 150.052 286.407 151.471C285.27 152.057 283.781 151.958 282.453 152.175C281.271 152.369 280.17 152.437 280.221 154.233C280.243 155.047 278.944 155.554 278.314 156.303C275.583 159.553 272.857 159.397 269.984 156.249C268.627 154.76 266.77 153.955 264.83 153.246C261.773 152.129 258.631 150.859 255.488 150.802C250.645 150.715 245.795 150.88 241.328 153.895C238.524 155.788 237.484 158.528 236.651 161.07C235.923 163.293 236.157 166.086 236.009 168.628C235.903 170.459 235.418 172.358 236.295 174.179C236.506 174.618 236.084 175.019 235.771 175.375C233.795 177.629 231.833 179.893 230.665 182.716C230.533 183.033 230.143 183.145 230.239 183.679C230.42 184.685 229.946 185.009 228.957 184.585C225.994 183.316 223.085 183.96 220.174 184.859C219.584 185.042 219.337 185.471 219.09 185.913C217.876 188.08 216.048 189.472 213.714 190.226C213.187 190.397 212.686 190.571 212.727 191.238C212.824 192.812 211.804 192.799 210.662 192.845C206.314 193.018 202.294 194.176 199.279 197.501C198.406 198.465 197.322 198.187 196.382 198.617C194.607 199.43 192.918 200.295 191.509 201.644C191.216 201.925 190.912 201.919 190.625 201.871C188.034 201.443 186.01 202.476 184.247 204.26C183.48 205.036 182.728 204.353 181.953 204.204C180.488 203.923 179.141 203.197 177.489 203.619C176.353 203.91 175.656 204.401 175.134 205.338C174.366 206.716 172.052 207.691 170.508 207.146C169.368 206.743 168.231 206.574 167.047 206.64C163.342 206.848 159.707 206.126 156.038 205.857C153.942 205.703 152.018 206.526 150.049 207.012C146.348 207.924 143.106 210.053 139.704 211.636C137.756 212.543 135.572 214.175 133.968 216.027C133.385 216.699 133.101 217.631 132.681 218.444C133.047 218.649 133.709 218.269 133.819 218.822C133.919 219.322 133.311 219.463 132.941 219.662C132.61 219.841 132.239 219.946 131.886 220.085ZM131.886 220.085C131.884 220.032 131.878 219.985 131.868 219.943M131.886 220.085C131.885 220.032 131.878 219.985 131.868 219.943M131.868 219.943C131.859 219.902 131.845 219.866 131.828 219.835M131.552 219.643C131.586 219.652 131.618 219.662 131.648 219.674M131.732 219.723C131.757 219.741 131.78 219.763 131.801 219.791" stroke="black" stroke-width="2" stroke-miterlimit="10" stroke-linejoin="round"/>
</svg>
