<svg width="402" height="241" viewBox="0 0 402 241" fill="none" xmlns="http://www.w3.org/2000/svg">
<path d="M44.4768 118.084C44.4813 118.082 44.4857 118.079 44.4902 118.077C44.4916 118.074 44.4931 118.07 44.4945 118.067L44.4768 118.084Z" stroke="black" stroke-width="2" stroke-miterlimit="10" stroke-linejoin="round"/>
<path d="M129.16 223.238C128.988 223.417 128.815 223.595 128.642 223.774C126.993 226.378 128.605 229.384 127.637 232.109C127.334 232.965 128.272 233.667 128.937 234.256C130.194 235.369 131.415 236.508 132.223 238.021C132.428 238.406 132.985 238.627 132.486 239.193C132.078 239.656 131.706 239.788 131.075 239.6C129.441 239.111 127.788 238.674 126.12 238.318C124.388 237.948 122.565 237.557 120.893 238.285C119.242 239.004 117.637 237.841 115.842 238.681C116.92 236.904 116.508 235.183 116.111 233.73C114.976 229.572 113.189 225.711 109.693 222.866C108.631 222.002 108.296 220.448 107.133 219.605C104.864 217.959 102.579 216.752 99.6821 218.391C99.0795 218.731 97.9593 218.221 97.0446 218.242C95.7982 218.271 94.5633 218.099 93.6456 219.22C93.5429 219.345 93.2197 219.465 93.1303 219.401C91.3858 218.164 89.7056 219.589 88.0584 219.477C85.9611 219.335 84.6321 220.407 83.3664 221.58C82.2629 222.604 81.1346 222.457 80.2717 221.807C79.09 220.917 78.3979 221.602 78.067 222.36C77.3071 224.099 76.1179 223.771 74.9383 223.19C74.0249 222.741 72.9868 222.632 72.2037 221.66C71.7385 221.082 70.5678 220.774 69.3069 220.945C67.652 221.169 65.9786 220.029 64.6001 218.995C64.1069 218.624 63.838 218.594 63.2976 218.557C61.2784 218.417 59.2608 218.229 57.9092 216.315C57.4713 215.696 56.7332 215.15 56.0163 214.888C52.7388 213.69 50.1189 210.638 46.1527 211.364C45.4957 211.484 45.0526 211.082 44.5758 210.653C43.2807 209.488 41.9152 208.511 40.2641 210.171C40.0438 210.392 39.5455 210.652 39.3646 210.346C38.7435 209.297 37.4443 209.156 36.7443 208.347C34.8505 206.158 32.802 204.355 29.921 203.481C28.7001 203.11 28.0203 201.663 27.141 200.654C26.3114 199.701 25.4329 198.522 23.81 199.723C24.1511 197.026 24.1316 194.453 22.7552 192.068C22.5683 191.744 22.5378 191.27 22.5816 190.883C22.8972 188.087 21.7468 185.467 21.5161 182.725C21.4357 181.77 20.8632 179.56 18.6885 179.849C18.2562 179.906 18.128 179.626 17.9033 179.372C17.6413 179.075 17.3141 178.679 16.9738 178.634C13.1888 178.125 12.8905 174.481 11.1064 172.182C10.5862 171.511 10.3837 170.619 9.64529 170.097C8.6717 169.408 8.43074 169.007 9.64358 168.035C10.6124 167.258 10.8598 165.593 10.4815 164.276C10.0466 162.763 9.64803 160.895 8.56046 159.991C6.74573 158.481 7.36593 157.744 8.14237 155.952C8.65321 154.773 8.31436 152.624 8.40489 150.908C8.57038 147.768 6.64579 145.766 4.56751 143.817C1.35221 140.803 -0.0629107 133.525 1.89608 129.738C2.29876 128.96 3.06289 128.503 2.79523 127.361C2.65216 126.751 3.24549 126.108 4.08611 126.959C4.89096 127.774 5.45023 128.816 6.20563 129.579C8.47112 131.865 10.9197 133.961 13.6274 135.779C15.2798 136.888 16.488 138.56 18.606 139.109C21.1312 139.764 23.4522 140.195 26.1522 139.386C30.6806 138.031 33.9307 134.939 37.4049 132.128C38.9248 130.898 39.3944 128.806 40.3709 127.14C42.0398 124.293 43.1474 121.116 44.4898 118.078C46.542 116.985 48.182 115.55 48.7817 113.167C49.0326 112.169 49.2141 111.114 50.7261 112.25C51.6193 112.92 52.8408 112.844 53.9837 112.176C55.248 111.437 56.5624 110.843 58.1158 110.62C59.0984 110.479 60.794 110.478 60.9344 108.667C60.9527 108.43 61.4854 107.988 61.6247 108.042C64.1059 109.002 66.2692 106.442 68.7958 107.473C70.1725 108.034 71.0963 109.561 72.8586 109.289C75.6887 108.853 78.196 110.972 81.0649 110.377C81.2973 110.328 81.7467 110.429 81.8047 110.576C82.4215 112.135 84.0139 112.47 85.2343 112.892C89.014 114.197 92.0366 116.924 95.7934 118.222C96.596 118.5 97.469 118.762 98.1534 118.351C99.7779 117.376 101.879 117.28 103.116 115.586C104.135 114.191 106.11 114.661 107.329 113.4C109.625 111.025 111.173 108.229 112.278 105.212C114.427 99.3482 115.851 93.2861 116.598 87.0798C116.742 85.8749 116.591 84.6601 116.43 83.4391C116.143 81.248 115.675 79.0811 115.737 76.8303C115.766 75.7553 115.854 74.3377 114.214 73.901C113.561 73.7273 113.777 72.9786 113.811 72.4703C113.988 69.8204 113.635 67.2192 113.106 64.6384C112.903 63.6455 113.223 63.2367 114.123 63.7104C116.121 64.7634 118.034 65.8636 120.342 66.3183C121.5 66.5464 122.499 67.8428 123.455 68.7736C125.557 70.8204 128.15 71.4859 130.91 71.2136C132.183 71.0882 133.241 71.3838 134.094 72.0137C134.975 72.6649 135.887 72.9355 136.877 73.0742C138.714 73.332 140.559 73.603 142.409 73.6854C144.352 73.772 145.748 72.5668 146.269 70.4085C147.019 71.845 148.667 71.2237 149.157 71.5494C150.732 72.5983 152.518 72.7022 154.13 73.3879C156.098 74.2246 158.074 75.2348 160.132 73.1802C161.28 72.0329 162.893 73.0973 163.986 73.6265C165.465 74.3425 167.249 74.2951 168.522 75.5436C168.913 75.9274 169.594 75.766 170.137 75.2242C170.551 74.8104 171.081 73.9874 171.814 74.4308C173.922 75.7063 176.409 74.6595 178.507 75.606C179.603 76.1003 180.593 76.1309 181.75 76.0662C182.827 76.006 184.064 75.9491 184.996 76.8798C186.148 78.0303 187.641 77.4278 188.976 77.5108C191.472 77.6656 194.055 77.3025 196.461 77.8147C199.849 78.536 203.162 76.8717 206.33 77.6581C209.346 78.4067 212.128 77.5231 214.607 76.7456C219.969 75.0634 225.692 75.37 230.964 73.1957C232.468 72.5757 234.743 72.6693 236.657 72.9101C237.941 73.0719 238.951 72.7071 240.067 72.0989C241.91 71.0945 244.07 70.7918 245.875 69.6072C246.899 68.9346 248.042 68.4351 248.473 67.1822C248.854 66.0775 249.933 66.3296 250.661 65.9127C252.075 65.1031 253.488 64.2768 254.735 63.173C255.706 62.3132 256.767 61.375 258.319 61.8614C258.873 62.0348 259.383 61.6528 259.821 61.3564C260.694 60.7667 261.39 60.7304 262.513 61.0826C264.392 61.6716 266.451 60.9881 268.479 61.182C272.431 61.5597 276.303 60.8977 279.569 58.4411C280.696 57.5935 281.688 58.6074 282.822 58.0737C285.597 56.7681 288.523 55.7774 291.404 54.7045C292.861 54.1622 294.762 55.0781 295.894 53.6354C296.831 52.4406 298.133 52.0249 299.385 51.7692C300.643 51.5123 301.705 51.047 302.481 50.1597C303.356 49.1583 304.444 48.9521 305.608 48.8423C306.31 48.7759 306.897 48.6701 307.37 48.0444C308.744 46.229 311.275 46.0491 312.767 44.1353C313.323 43.4212 315.476 43.2963 316.888 43.1864C320.187 42.93 321.686 40.7112 323.295 38.2933C324.411 36.6158 325.537 34.8118 327.359 33.7402C328.589 33.0173 329.144 31.7694 329.453 30.6202C329.864 29.0968 330.673 29.1125 331.536 29.7683C332.648 30.613 333.585 30.4628 334.85 30.1955C336.331 29.8826 337.928 30.5103 339.499 30.2307C339.89 30.1609 340.239 30.0769 340.562 29.8701C340.666 29.7604 340.77 29.6509 340.874 29.5412C341.573 27.5891 343.208 27.2416 344.987 27.1402C346.758 25.641 349.34 27.2071 351.114 25.4244C352.573 23.9576 354.942 23.4566 355.661 21.1639C355.718 20.9827 355.766 20.5884 356.147 20.6957C358.492 21.3558 359.129 19.4533 359.392 18.0236C359.676 16.4731 360.983 15.902 361.661 16.0028C362.956 16.1948 363.403 15.6946 364.068 14.8552C364.94 13.7546 366.437 13.5071 367.602 13.7412C369.91 14.2054 371.214 12.8864 372.561 11.5514C374.236 9.89207 375.907 8.52794 378.336 10.1977C379.029 10.674 379.357 9.81419 379.922 9.69063C381.78 9.28419 383.597 8.65356 385.391 8.0017C386.083 7.7503 386.734 7.08492 386.76 6.37436C386.833 4.31645 387.425 5.11532 388.108 6.0552C388.413 6.47482 388.781 6.43238 389.179 6.25457C390.499 5.665 391.828 5.07699 392.832 3.98942C394.011 2.71377 395.241 1.6351 397.185 1.92517C397.899 2.03196 398.665 2.05866 399.239 1.36247C399.475 1.07634 399.949 0.783528 400.267 1.22899C400.393 1.40578 400.269 1.97292 400.07 2.13448C398.702 3.25336 399.243 5.15262 398.277 6.44385C398.144 6.62148 398.087 7.46159 398.141 7.49804C399.606 8.48874 398.567 9.51334 398.025 10.2528C397.299 11.242 396.385 11.9693 394.921 12.1832C392.443 12.5452 389.893 12.9046 387.741 14.4907C386.052 15.7357 384.476 17.1924 382.014 16.8965C380.645 16.732 379.674 18.0618 378.526 18.6772C376.589 19.7158 375.006 21.1882 373.154 22.2922C373.038 22.3612 372.811 22.4261 372.814 22.4846C372.931 25.0229 369.998 26.3834 370.257 28.8567C370.376 29.9973 369.805 29.9163 369.184 30.2396C367.774 30.9731 366.232 31.587 365.53 33.2141C365.256 33.8484 364.652 34.0152 364.055 34.1374C361.397 34.6813 359.396 36.1967 357.774 38.3049C357.537 38.6143 357.202 38.9954 356.862 39.0564C354.606 39.4592 354.123 41.6039 352.946 43.0303C352.335 43.7715 351.94 44.4904 350.827 44.6202C349.152 44.8156 348.228 46.4849 346.517 46.8877C343.172 47.6751 340.534 50.0621 337.395 51.3472C335.594 52.0841 333.99 53.1805 332.041 53.7023C330.576 54.0946 329.511 55.5977 328.122 56.4462C327.165 57.0306 326.281 57.7817 325.289 58.3654C323.333 59.5165 321.688 60.7887 320.437 62.9402C318.934 65.5268 316.025 67.1095 314.143 69.5656C312.684 71.4686 312.339 73.5541 312.374 75.8424C312.394 77.1671 311.562 78.4926 310.49 78.7643C307.483 79.5267 304.372 79.8812 301.302 80.3896C301.179 80.4098 300.976 80.405 300.924 80.3318C300.095 79.1465 298.969 78.8463 297.607 79.1511C294.588 79.8271 291.671 80.6879 289.925 83.5613C288.235 86.3414 286.61 89.1617 284.865 91.9065C284.585 92.3471 284.59 93.1293 283.758 93.2092C283.362 93.2472 282.965 93.6042 283.019 94.0555C283.279 96.2166 282.538 98.2757 282.352 100.391C282.029 104.056 282.165 107.545 283.881 110.864C284.213 111.506 284.161 112.217 283.979 112.851C283.817 113.414 283.933 113.905 284.33 114.1C286.668 115.248 286.905 117.952 288.516 119.643C289.318 120.485 289.595 121.734 291.084 121.994C291.654 122.093 292.387 123.14 292.474 123.827C293 128.011 295.885 130.688 298.714 133.174C302.107 136.155 305.496 139.088 308.07 142.817C308.888 144.002 309.418 145.4 309.977 146.743C310.273 147.452 310.651 148.071 311.215 148.548C312.166 149.352 313.327 150.041 311.807 151.365C311.35 151.763 311.861 152.06 312.032 152.394C312.6 153.5 312.618 154.637 311.696 155.505C310.675 156.466 309.802 155.702 309.127 154.918C308.602 154.308 307.877 154.487 307.292 154.211C306.085 153.642 304.562 153.664 303.636 152.633C301.907 150.71 299.606 152.176 297.727 151.47C294.64 150.31 291.862 150.876 289.013 152.342C287.836 152.948 286.296 152.845 284.922 153.07C283.699 153.27 282.56 153.34 282.613 155.196C282.636 156.037 281.292 156.561 280.64 157.335C277.815 160.693 274.995 160.532 272.023 157.279C270.619 155.741 268.698 154.909 266.691 154.176C263.529 153.022 260.278 151.71 257.027 151.651C252.017 151.561 246.999 151.732 242.378 154.847C239.478 156.803 238.402 159.634 237.54 162.261C236.787 164.557 237.029 167.443 236.876 170.07C236.766 171.962 236.264 173.924 237.172 175.806C237.39 176.259 236.953 176.673 236.63 177.041C234.585 179.37 232.556 181.71 231.347 184.626C231.211 184.954 230.807 185.07 230.907 185.622C231.094 186.661 230.604 186.996 229.581 186.558C226.515 185.246 223.506 185.912 220.495 186.841C219.884 187.03 219.629 187.473 219.373 187.93C218.117 190.169 216.226 191.607 213.812 192.386C213.266 192.563 212.748 192.743 212.791 193.432C212.891 195.058 211.836 195.045 210.654 195.092C206.156 195.271 201.998 196.468 198.879 199.903C197.975 200.899 196.854 200.612 195.882 201.056C194.045 201.896 192.298 202.79 190.84 204.184C190.537 204.474 190.223 204.468 189.926 204.419C187.246 203.976 185.152 205.044 183.328 206.887C182.534 207.689 181.757 206.983 180.955 206.829C179.439 206.539 178.046 205.789 176.337 206.225C175.162 206.525 174.44 207.033 173.901 208.001C173.106 209.425 170.712 210.432 169.115 209.869C167.936 209.453 166.759 209.278 165.534 209.346C161.702 209.561 157.941 208.815 154.146 208.537C151.977 208.378 149.987 209.228 147.95 209.73C144.121 210.673 140.767 212.873 137.248 214.508C135.233 215.445 132.974 217.132 131.314 219.045C130.711 219.74 130.417 220.703 129.983 221.543C130.361 221.755 131.046 221.362 131.16 221.933C131.263 222.45 130.634 222.596 130.252 222.801C129.909 222.986 129.526 223.095 129.16 223.238ZM129.16 223.238C129.158 223.183 129.152 223.135 129.142 223.092M129.16 223.238C129.159 223.183 129.152 223.135 129.142 223.092M129.142 223.092C129.132 223.049 129.118 223.012 129.1 222.98M128.815 222.782C128.85 222.791 128.883 222.801 128.914 222.814M129.001 222.864C129.027 222.883 129.051 222.906 129.072 222.934C129.051 222.906 129.027 222.883 129.001 222.864Z" stroke="black" stroke-width="2" stroke-miterlimit="10" stroke-linejoin="round"/>
<path d="M44.4763 118.084L44.4937 118.067C44.4465 118.041 44.3993 118.015 44.3521 117.99C44.3935 118.021 44.4349 118.052 44.4763 118.084Z" stroke="black" stroke-width="2" stroke-miterlimit="10" stroke-linejoin="round"/>
</svg>
