<svg width="24" height="24" viewBox="0 0 24 24" fill="none" xmlns="http://www.w3.org/2000/svg">
<g clip-path="url(#clip0_75_2495)">
<path d="M11.9819 15.0991C12.3625 15.0991 12.6721 14.7895 12.6721 14.409C12.6721 14.0284 12.3625 13.7188 11.9819 13.7188C11.6014 13.7188 11.2917 14.0284 11.2917 14.409C11.2917 14.7896 11.6013 15.0991 11.9819 15.0991Z" fill="#2C2C2C"/>
<path d="M11.2786 18.7279V16.3858C10.4672 16.0959 9.8849 15.32 9.8849 14.4104C9.8849 13.254 10.8257 12.3132 11.9821 12.3132C13.1384 12.3132 14.0792 13.254 14.0792 14.4104C14.0792 15.32 13.4969 16.096 12.6855 16.3858V18.7279H15.6603H15.6866C15.8089 17.1976 16.3711 15.7299 17.3313 14.4496C18.1971 13.2953 18.6547 11.9205 18.6547 10.4739C18.6547 8.71604 17.9739 7.05963 16.7377 5.80999C15.5025 4.56133 13.8556 3.86253 12.1004 3.84227C12.0744 3.84198 12.0486 3.8418 12.0226 3.8418C10.3037 3.8418 8.67418 4.49989 7.42703 5.69978C6.16045 6.91828 5.43796 8.55142 5.3927 10.2983C5.35368 11.8032 5.80702 13.2339 6.70364 14.4357C7.6597 15.7172 8.20387 17.1928 8.29115 18.7279H8.30386H11.2786ZM14.1994 11.6774C13.6071 11.0852 12.8197 10.759 11.9821 10.759C11.1445 10.759 10.357 11.0852 9.76479 11.6774L8.76991 10.6825C9.62789 9.82451 10.7687 9.352 11.9821 9.352C13.1955 9.352 14.3362 9.82451 15.1943 10.6825L14.1994 11.6774Z" fill="#2C2C2C"/>
<path d="M8.30396 20.1348H15.6604V24.0009H8.30396V20.1348Z" fill="#2C2C2C"/>
<path d="M11.3147 0H12.7217V1.71437H11.3147V0Z" fill="#2C2C2C"/>
<path d="M5.81934 1.82989L7.03779 1.12639L7.89498 2.61104L6.67652 3.31453L5.81934 1.82989Z" fill="#2C2C2C"/>
<path d="M1.97534 6.16211L2.67884 4.94365L4.16348 5.80084L3.45999 7.0193L1.97534 6.16211Z" fill="#2C2C2C"/>
<path d="M19.8357 5.86328L21.3203 5.00612L22.0238 6.22457L20.5392 7.08174L19.8357 5.86328Z" fill="#2C2C2C"/>
<path d="M16.1316 2.64844L16.9888 1.16379L18.2072 1.86729L17.35 3.35193L16.1316 2.64844Z" fill="#2C2C2C"/>
</g>
<defs>
<clipPath id="clip0_75_2495">
<rect width="24" height="24" fill="white"/>
</clipPath>
</defs>
</svg>
