<svg width="20" height="25" viewBox="0 0 20 25" fill="none" xmlns="http://www.w3.org/2000/svg">
<path d="M18.0329 5.13991C17.3221 3.73832 16.2702 2.53792 14.9742 1.64907C13.6781 0.760228 12.1794 0.211462 10.6158 0.0532265C9.9085 -0.0177422 9.19585 -0.0177422 8.48853 0.0532265C6.92498 0.211566 5.4263 0.760316 4.13019 1.64905C2.83408 2.53779 1.78211 3.73802 1.07094 5.13944C0.176183 6.92758 -0.169425 8.94051 0.0776471 10.9247C0.324719 12.9089 1.15342 14.7756 2.45938 16.2897L8.82772 24.0323C8.91567 24.1393 9.02623 24.2255 9.15145 24.2846C9.27667 24.3438 9.41345 24.3745 9.55194 24.3745C9.69044 24.3745 9.82721 24.3438 9.95243 24.2846C10.0777 24.2255 10.1882 24.1393 10.2762 24.0323L16.6445 16.2897C17.9504 14.7757 18.7791 12.909 19.0262 10.9249C19.2733 8.94083 18.9277 6.92798 18.0329 5.13991ZM9.55194 13.1242C8.81026 13.1242 8.08524 12.9043 7.46855 12.4922C6.85187 12.0802 6.37122 11.4945 6.08739 10.8093C5.80356 10.1241 5.7293 9.37007 5.874 8.64264C6.01869 7.91521 6.37584 7.24702 6.90029 6.72258C7.42474 6.19813 8.09292 5.84098 8.82035 5.69628C9.54778 5.55159 10.3018 5.62585 10.987 5.90968C11.6722 6.19351 12.2579 6.67415 12.67 7.29084C13.082 7.90752 13.3019 8.63255 13.3019 9.37423C13.3008 10.3684 12.9053 11.3216 12.2023 12.0246C11.4993 12.7276 10.5461 13.1231 9.55194 13.1242Z" fill="#1D1D1D"/>
</svg>
