<svg width="24" height="24" viewBox="0 0 24 24" fill="none" xmlns="http://www.w3.org/2000/svg">
<g clip-path="url(#clip0_75_2475)">
<path d="M16.7103 9.89138H12.7031V4.36523L7.28955 14.1101H11.2968V19.6363L16.7103 9.89138Z" fill="#2C2C2C"/>
<path d="M5.71289 20.4259L5.44786 16.0905L4.46939 17.0868C3.62808 15.68 2.8125 14.3282 2.8125 11.9884C2.8125 10.4615 3.23292 9.01421 3.99652 7.72425L1.84842 8.14533L1.94925 5.71505C0.702703 7.56366 0 9.73725 0 11.9884C0 14.7477 0.868078 16.7292 2.29134 18.8233L1.27509 19.6644L5.71289 20.4259Z" fill="#2C2C2C"/>
<path d="M17.7869 1.62872C16.0435 0.574312 14.0727 0 11.9999 0C9.04005 0 6.78564 1.04147 4.61988 2.74041L3.56242 1.85053L3.37427 6.38719L7.98921 5.48217L6.77041 4.55381C8.17727 3.70219 9.52249 2.83308 11.9896 2.83308C13.2712 2.83308 14.5019 3.12389 15.6194 3.65156L15.1619 1.62872H17.7869Z" fill="#2C2C2C"/>
<path d="M20.7947 4.09275L21.9902 3.07031H16.9688L17.9699 7.49709L19.1049 6.38475C20.1238 7.791 21.1875 9.33666 21.1875 11.9884C21.1875 13.1103 20.9593 14.2079 20.5324 15.2299L21.8892 14.7254L22.1663 18.1286C23.3623 16.3037 24 14.2036 24 11.9884C24 8.718 22.7765 6.37983 20.7947 4.09275Z" fill="#2C2C2C"/>
<path d="M20.5915 16.748L16.219 18.374L17.5023 19.2303C16.096 20.1485 14.6848 21.1413 12.0359 21.1413C10.2277 21.1413 8.52185 20.5847 7.11429 19.5928L7.27197 22.1698L5.38525 21.8461C7.29747 23.2411 9.59289 23.999 12.0002 23.999C15.2457 23.999 17.6583 22.7654 19.8699 20.8075L20.987 21.604L20.5915 16.748Z" fill="#2C2C2C"/>
</g>
<defs>
<clipPath id="clip0_75_2475">
<rect width="24" height="24" fill="white"/>
</clipPath>
</defs>
</svg>
