<svg width="20" height="24" viewBox="0 0 20 24" fill="none" xmlns="http://www.w3.org/2000/svg">
<path d="M11.5337 17.4427C10.0973 17.3316 9.49375 16.6194 8.36728 15.9355C7.74816 19.1839 6.99153 22.2978 4.75044 23.9245C4.05782 19.0149 5.76582 15.3273 6.55903 11.4131C5.20699 9.13709 6.7216 4.55601 9.57334 5.68485C13.0832 7.07279 6.53464 14.1476 10.9308 15.0313C15.5203 15.9538 17.394 7.06771 14.5476 4.17735C10.4353 0.00439262 2.57742 4.08252 3.5437 10.0563C3.77908 11.5167 5.28827 11.96 4.14656 13.9752C1.51462 13.3924 0.729546 11.3165 0.830475 8.54912C0.993383 4.01919 4.90082 0.847384 8.8201 0.408445C13.7768 -0.146324 18.429 2.22855 19.0711 6.89091C19.7936 12.1531 16.8334 17.8518 11.5337 17.4427Z" fill="#F1F2F2"/>
</svg>
