<svg width="27" height="27" viewBox="0 0 27 27" fill="none" xmlns="http://www.w3.org/2000/svg">
<path d="M13.9025 13.1875C13.4569 13.1875 13.0956 12.8263 13.0956 12.3807V9.43555C11.8022 9.79024 10.8491 10.9763 10.8491 12.3807C10.8491 14.0646 12.2188 15.4347 13.9025 15.4347C15.3073 15.4347 16.4936 14.4813 16.8483 13.1875H13.9025Z" fill="black"/>
<path d="M16.936 7.20703V9.3453H19.0749C18.7906 8.30902 17.9726 7.49116 16.936 7.20703Z" fill="black"/>
<path d="M20.5885 0H3.3794C2.93379 0 2.57251 0.361283 2.57251 0.806889V23.415C2.57251 23.8606 2.93379 24.2219 3.3794 24.2219H5.60463V3.58499C5.60463 3.13938 5.96591 2.7781 6.41152 2.7781H21.3954V0.806889C21.3954 0.361283 21.0341 0 20.5885 0Z" fill="black"/>
<path d="M7.21826 4.39062V26.9987H23.6205C24.0661 26.9987 24.4274 26.6375 24.4274 26.1919V4.39062H7.21826ZM15.3222 6.29149C15.3222 5.84588 15.6834 5.4846 16.1291 5.4846C18.7029 5.4846 20.7968 7.57826 20.7968 10.1518C20.7968 10.5974 20.4355 10.9586 19.9899 10.9586H16.1291C15.6834 10.9586 15.3222 10.5974 15.3222 10.1518V6.29149ZM13.9023 7.71136C14.3479 7.71136 14.7092 8.07264 14.7092 8.51825V11.5716H17.7631C18.2087 11.5716 18.57 11.9329 18.57 12.3785C18.57 14.9523 16.476 17.0463 13.9023 17.0463C11.3288 17.0463 9.23519 14.9523 9.23519 12.3785C9.23514 9.80502 11.3288 7.71136 13.9023 7.71136ZM20.5052 23.5354H9.33244C8.88683 23.5354 8.52555 23.1741 8.52555 22.7285C8.52555 22.2829 8.88683 21.9216 9.33244 21.9216H20.5052C20.9508 21.9216 21.3121 22.2829 21.3121 22.7285C21.3121 23.1741 20.9508 23.5354 20.5052 23.5354ZM20.5052 20.4479H9.33244C8.88683 20.4479 8.52555 20.0866 8.52555 19.641C8.52555 19.1954 8.88683 18.8341 9.33244 18.8341H20.5052C20.9508 18.8341 21.3121 19.1954 21.3121 19.641C21.3121 20.0866 20.9508 20.4479 20.5052 20.4479Z" fill="black"/>
</svg>
