<svg width="33" height="33" viewBox="0 0 33 33" fill="none" xmlns="http://www.w3.org/2000/svg">
<path d="M19.25 8.25C18.8853 8.25 18.5356 8.10513 18.2777 7.84727C18.0199 7.58941 17.875 7.23967 17.875 6.875C17.875 6.51033 17.7301 6.16059 17.4723 5.90273C17.2144 5.64487 16.8647 5.5 16.5 5.5C16.1353 5.5 15.7856 5.64487 15.5277 5.90273C15.2699 6.16059 15.125 6.51033 15.125 6.875C15.125 7.23967 14.9801 7.58941 14.7223 7.84727C14.4644 8.10513 14.1147 8.25 13.75 8.25C13.3853 8.25 13.0356 8.10513 12.7777 7.84727C12.5199 7.58941 12.375 7.23967 12.375 6.875C12.375 5.78098 12.8096 4.73177 13.5832 3.95818C14.3568 3.1846 15.406 2.75 16.5 2.75C17.594 2.75 18.6432 3.1846 19.4168 3.95818C20.1904 4.73177 20.625 5.78098 20.625 6.875C20.625 7.23967 20.4801 7.58941 20.2223 7.84727C19.9644 8.10513 19.6147 8.25 19.25 8.25ZM28.875 11C28.875 11.3647 28.7301 11.7144 28.4723 11.9723C28.2144 12.2301 27.8647 12.375 27.5 12.375H26.125V22C26.1226 24.1873 25.2526 26.2843 23.706 27.831C22.1593 29.3777 20.0623 30.2476 17.875 30.25H15.125C12.9377 30.2476 10.8407 29.3777 9.29401 27.831C7.74735 26.2843 6.87739 24.1873 6.875 22V12.375H5.5C5.13533 12.375 4.78559 12.2301 4.52773 11.9723C4.26987 11.7144 4.125 11.3647 4.125 11C4.125 10.6353 4.26987 10.2856 4.52773 10.0277C4.78559 9.76987 5.13533 9.625 5.5 9.625H27.5C27.8647 9.625 28.2144 9.76987 28.4723 10.0277C28.7301 10.2856 28.875 10.6353 28.875 11ZM15.125 17.875C15.125 17.5103 14.9801 17.1606 14.7223 16.9027C14.4644 16.6449 14.1147 16.5 13.75 16.5C13.3853 16.5 13.0356 16.6449 12.7777 16.9027C12.5199 17.1606 12.375 17.5103 12.375 17.875V22C12.375 22.3647 12.5199 22.7144 12.7777 22.9723C13.0356 23.2301 13.3853 23.375 13.75 23.375C14.1147 23.375 14.4644 23.2301 14.7223 22.9723C14.9801 22.7144 15.125 22.3647 15.125 22V17.875ZM20.625 17.875C20.625 17.5103 20.4801 17.1606 20.2223 16.9027C19.9644 16.6449 19.6147 16.5 19.25 16.5C18.8853 16.5 18.5356 16.6449 18.2777 16.9027C18.0199 17.1606 17.875 17.5103 17.875 17.875V22C17.875 22.3647 18.0199 22.7144 18.2777 22.9723C18.5356 23.2301 18.8853 23.375 19.25 23.375C19.6147 23.375 19.9644 23.2301 20.2223 22.9723C20.4801 22.7144 20.625 22.3647 20.625 22V17.875Z" fill="black"/>
</svg>
