<svg width="27" height="27" viewBox="0 0 27 27" fill="none" xmlns="http://www.w3.org/2000/svg">
<g clip-path="url(#clip0_75_3247)">
<path d="M26.466 25.4601C26.1332 25.2663 24.1065 24.0112 23.0222 21.7421C25.5547 19.3741 26.995 16.0799 26.995 12.7086C26.995 5.73133 20.9111 0.00195312 13.4975 0.00195312C6.08391 0.00195312 0 5.73133 0 12.7086C0 19.6859 6.08391 25.4153 13.4975 25.4153C14.4927 25.4153 15.5617 25.322 17.0366 25.0121C20.913 27.0719 24.3923 27.014 25.7161 26.9931C26.3054 26.9858 26.7332 27.0922 26.9534 26.4834C27.1024 26.075 26.882 25.6033 26.466 25.4601ZM15.0793 19.0883C15.0793 19.9618 14.3711 20.6701 13.4975 20.6701C12.6239 20.6701 11.9158 19.9618 11.9158 19.0883V12.7086C11.9158 11.835 12.6239 11.1268 13.4975 11.1268C14.3711 11.1268 15.0793 11.835 15.0793 12.7086V19.0883ZM13.4975 8.70154C12.6239 8.70154 11.9158 7.99327 11.9158 7.11978C11.9158 6.24618 12.6239 5.53801 13.4975 5.53801C14.3711 5.53801 15.0793 6.24618 15.0793 7.11978C15.0793 7.99332 14.3711 8.70154 13.4975 8.70154Z" fill="#1D1D1D"/>
</g>
<defs>
<clipPath id="clip0_75_3247">
<rect width="27" height="27" fill="white"/>
</clipPath>
</defs>
</svg>
