<svg width="31" height="31" viewBox="0 0 31 31" fill="none" xmlns="http://www.w3.org/2000/svg">
<path d="M9.98106 3.45703V6.49228C9.98657 8.72255 8.75381 10.4572 6.16152 10.4572H3.16382L3.16761 24.6707C3.16761 26.759 3.89783 27.5409 5.92144 27.5409H14.6149C13.4775 26.4435 12.7652 24.9094 12.7652 23.2157V18.8423C12.7652 17.7263 13.4899 17.0109 14.3638 16.5349V15.9738C14.3638 12.8449 16.9385 10.2708 20.0671 10.2708H21.3302C21.8145 10.2708 22.2829 10.3387 22.7327 10.4555V6.32729C22.7327 4.24099 22.0008 3.45703 19.9793 3.45703H9.98106Z" fill="black"/>
<path d="M8.35376 3.45703V6.29663C8.35376 7.43778 8.14572 8.03332 7.86017 8.33299C7.57325 8.63231 7.04591 8.83898 5.95333 8.83898H3.16333C3.16333 8.35262 3.45749 8.13045 3.75887 7.81977L7.55844 3.91066C7.80644 3.62546 8.10404 3.46048 8.35376 3.45703Z" fill="black"/>
<path d="M20.6978 20.6042C21.3419 20.6042 21.8586 21.1209 21.8586 21.765V23.1982C21.8586 23.8406 21.3419 24.3573 20.6978 24.3573C20.0557 24.3573 19.5391 23.8406 19.5391 23.1982V21.765C19.5391 21.1209 20.0557 20.6042 20.6978 20.6042ZM20.0647 14.1676H21.3312C22.2984 14.1676 23.041 14.9098 23.041 15.877V17.4932H18.3566V15.877C18.3566 14.9098 19.0975 14.1676 20.0647 14.1676ZM20.0647 11.7816C17.8169 11.7816 15.9689 13.6292 15.9689 15.8774V17.4935H15.7912C14.9962 17.5349 14.3721 18.0767 14.3721 18.7459V23.1193C14.3721 25.5697 16.3437 27.5413 18.7923 27.5413H22.6046C25.0533 27.5413 27.0249 25.5697 27.0249 23.1193V18.7456C27.0249 18.0763 26.4004 17.5342 25.6058 17.4932H25.4267V15.877C25.4267 13.6288 23.5791 11.7812 21.3309 11.7812L20.0647 11.7816Z" fill="black"/>
</svg>
